<svg width="39" height="39" viewBox="0 0 39 39" fill="none" xmlns="http://www.w3.org/2000/svg">
<path d="M0 19.3939C0 8.90051 8.73045 0.393921 19.5 0.393921C30.2696 0.393921 39 8.90051 39 19.3939C39 29.8873 30.2696 38.3939 19.5 38.3939C8.73045 38.3939 0 29.8873 0 19.3939Z" fill="white"/>
<path fill-rule="evenodd" clip-rule="evenodd" d="M23.7794 7.9939C23.9835 9.34497 23.4191 10.6686 22.6746 11.6051C21.878 12.6095 20.505 13.3864 19.1747 13.3459C18.9319 12.0524 19.5536 10.7196 20.3102 9.82367C21.1401 8.83489 22.5625 8.0763 23.7794 7.9939ZM27.7756 27.011C28.4614 25.9869 28.7176 25.4703 29.25 24.3141C25.3779 22.8793 24.7574 17.5155 28.5895 15.4569C27.4207 14.0286 25.7782 13.2007 24.2277 13.2007C23.1105 13.2007 22.3451 13.4848 21.6492 13.743C21.0693 13.9582 20.5378 14.1555 19.8912 14.1555C19.1926 14.1555 18.5738 13.9393 17.926 13.713C17.2141 13.4643 16.4671 13.2033 15.5401 13.2033C13.8001 13.2033 11.9481 14.2392 10.7739 16.0101C9.12342 18.5043 9.40495 23.1932 12.0816 27.1876C13.0383 28.6171 14.3165 30.2233 15.9884 30.2376C16.6821 30.2443 17.1437 30.0426 17.6433 29.8243C18.2151 29.5744 18.8365 29.3028 19.9126 29.2972C20.9949 29.2909 21.6066 29.5658 22.1708 29.8194C22.6575 30.0381 23.1089 30.241 23.7967 30.2337C25.4699 30.2206 26.8189 28.4406 27.7756 27.011Z" fill="#0B0B0A"/>
</svg>
