<svg width="36" height="36" viewBox="0 0 36 36" fill="none" xmlns="http://www.w3.org/2000/svg">
<rect x="0.5" y="0.5" width="35" height="35" rx="3.5" fill="white"/>
<path fill-rule="evenodd" clip-rule="evenodd" d="M5 15H31.665C31.656 11.885 31.558 10.234 30.495 9.171C29.323 8 27.437 8 23.666 8H13C9.228 8 7.343 8 6.171 9.171C5.108 10.234 5.009 11.885 5 15ZM31.666 17H5V20C5 23.77 5 25.656 6.171 26.828C7.343 28 9.228 28 12.999 28H23.666C27.437 28 29.323 28 30.495 26.828C31.666 25.656 31.666 23.771 31.666 20V17ZM11.666 21.666C11.5347 21.666 11.4046 21.6919 11.2833 21.7421C11.162 21.7924 11.0518 21.866 10.9589 21.9589C10.866 22.0518 10.7924 22.162 10.7421 22.2833C10.6919 22.4046 10.666 22.5347 10.666 22.666C10.666 22.7973 10.6919 22.9274 10.7421 23.0487C10.7924 23.17 10.866 23.2802 10.9589 23.3731C11.0518 23.466 11.162 23.5396 11.2833 23.5899C11.4046 23.6401 11.5347 23.666 11.666 23.666H11.679C11.9442 23.666 12.1986 23.5606 12.3861 23.3731C12.5736 23.1856 12.679 22.9312 12.679 22.666C12.679 22.4008 12.5736 22.1464 12.3861 21.9589C12.1986 21.7714 11.9442 21.666 11.679 21.666H11.666Z" fill="#172B85"/>
<rect x="0.5" y="0.5" width="35" height="35" rx="3.5" stroke="#D9D9D9"/>
</svg>
