<svg width="38" height="39" viewBox="0 0 38 39" fill="none" xmlns="http://www.w3.org/2000/svg">
<path d="M38 19.3939C38 8.89943 29.4945 0.393921 19 0.393921C8.50551 0.393921 0 8.89943 0 19.3939C0 28.8791 6.94687 36.7389 16.0313 38.1639V24.8861H11.207V19.3939H16.0313V15.208C16.0313 10.4468 18.8664 7.8158 23.2082 7.8158C25.2863 7.8158 27.4609 8.18689 27.4609 8.18689V12.8627H25.0637C22.7035 12.8627 21.9688 14.3285 21.9688 15.8314V19.3939H27.2382L26.3959 24.8861H21.9688V38.1639C31.0531 36.7389 38 28.8791 38 19.3939Z" fill="#1877F2"/>
<path d="M26.3959 24.8861L27.2383 19.3939H21.9688V15.8314C21.9688 14.3285 22.7035 12.8627 25.0637 12.8627H27.461V8.18689C27.461 8.18689 25.2863 7.8158 23.2082 7.8158C18.8665 7.8158 16.0313 10.4468 16.0313 15.208V19.3939H11.207V24.8861H16.0313V38.1639C16.9998 38.316 17.9907 38.3939 19 38.3939C20.0094 38.3939 21.0003 38.316 21.9688 38.1639V24.8861H26.3959Z" fill="white"/>
</svg>
