<svg width="39" height="39" viewBox="0 0 39 39" fill="none" xmlns="http://www.w3.org/2000/svg">
<path d="M0 19.3939C0 8.68296 8.68296 0 19.3939 0C30.1049 0 38.7879 8.68296 38.7879 19.3939C38.7879 30.1049 30.1049 38.7879 19.3939 38.7879C8.68296 38.7879 0 30.1049 0 19.3939Z" fill="white"/>
<path d="M19.394 14.2394C20.9721 14.2394 22.0366 14.9211 22.6435 15.4907L25.0153 13.1749C23.5586 11.8209 21.6631 10.9899 19.394 10.9899C16.107 10.9899 13.2684 12.8761 11.8864 15.6214L14.6037 17.7318C15.2853 15.7055 17.1716 14.2394 19.394 14.2394Z" fill="#EA4335"/>
<path d="M27.4618 19.5807C27.4618 18.8897 27.4058 18.3855 27.2844 17.8625H19.3939V20.9814H24.0255C23.9321 21.7564 23.4279 22.9236 22.3073 23.708L24.9593 25.7623C26.5467 24.2963 27.4618 22.1393 27.4618 19.5807Z" fill="#4285F4"/>
<path d="M14.6129 21.0561C14.4355 20.5332 14.3328 19.9729 14.3328 19.3939C14.3328 18.815 14.4355 18.2547 14.6036 17.7318L11.8863 15.6215C11.3167 16.7607 10.9899 18.04 10.9899 19.3939C10.9899 20.7479 11.3167 22.0272 11.8863 23.1664L14.6129 21.0561Z" fill="#FBBC05"/>
<path d="M19.3939 27.7979C21.663 27.7979 23.5679 27.0509 24.9592 25.7623L22.3073 23.708C21.5976 24.2029 20.6452 24.5484 19.3939 24.5484C17.1715 24.5484 15.2853 23.0823 14.6129 21.056L11.8956 23.1664C13.2776 25.9117 16.107 27.7979 19.3939 27.7979Z" fill="#34A853"/>
</svg>
