<svg width="32" height="24" viewBox="0 0 32 24" fill="none" xmlns="http://www.w3.org/2000/svg">
<g clip-path="url(#clip0_177_903)">
<path d="M31.4482 24H0.551749C0.247062 24 0 23.7172 0 23.3684V0.631607C0 0.282821 0.247062 0 0.551749 0H31.4483C31.7529 0 32 0.282821 32 0.631607V23.3684C31.9999 23.7173 31.7529 24 31.4482 24Z" fill="#FF4B55"/>
<path d="M16.2576 5.74809L17.7332 10.1725L22.397 10.2086C22.6577 10.2106 22.7659 10.5434 22.5561 10.6983L18.8043 13.4689L20.2111 17.9156C20.2898 18.1642 20.0067 18.3699 19.7945 18.2183L16.0002 15.5062L12.2058 18.2183C11.9937 18.3699 11.7106 18.1642 11.7892 17.9156L13.196 13.4689L9.44419 10.6983C9.23438 10.5435 9.34256 10.2106 9.60331 10.2086L14.2671 10.1725L15.7427 5.74809C15.8252 5.50072 16.1751 5.50072 16.2576 5.74809Z" fill="#FFE15A"/>
</g>
<defs>
<clipPath id="clip0_177_903">
<rect width="32" height="24" rx="2" fill="white"/>
</clipPath>
</defs>
</svg>
