<svg width="36" height="36" viewBox="0 0 36 36" fill="none" xmlns="http://www.w3.org/2000/svg">
<rect x="0.5" y="0.5" width="35" height="35" rx="3.5" fill="white"/>
<path fill-rule="evenodd" clip-rule="evenodd" d="M11.145 22.3622H8.77188L6.99232 15.4867C6.90786 15.1704 6.72851 14.8908 6.4647 14.759C5.80633 14.4278 5.08086 14.1643 4.28943 14.0313V13.7666H8.11236C8.63997 13.7666 9.03569 14.1643 9.10164 14.6261L10.025 19.5856L12.3969 13.7666H14.7041L11.145 22.3622ZM16.0232 22.3622H13.782L15.6275 13.7666H17.8687L16.0232 22.3622ZM20.7686 16.148C20.8345 15.685 21.2302 15.4203 21.6919 15.4203C22.4174 15.3538 23.2077 15.4868 23.8672 15.8168L24.2629 13.9661C23.6034 13.7014 22.8779 13.5685 22.2195 13.5685C20.0443 13.5685 18.4614 14.7591 18.4614 16.4115C18.4614 17.6686 19.5826 18.3287 20.374 18.7263C21.2302 19.1228 21.56 19.3875 21.494 19.784C21.494 20.3787 20.8345 20.6434 20.1762 20.6434C19.3847 20.6434 18.5933 20.4452 17.869 20.114L17.4733 21.9658C18.2647 22.2959 19.1209 22.4288 19.9123 22.4288C22.3514 22.4941 23.8672 21.3046 23.8672 19.5193C23.8672 17.271 20.7686 17.1392 20.7686 16.148ZM31.7106 22.3622L29.931 13.7666H28.0195C27.6238 13.7666 27.2281 14.0313 27.0962 14.4278L23.8009 22.3622H26.1081L26.5686 21.1063H29.4034L29.6672 22.3622H31.7106ZM28.3494 16.0815L29.0078 19.321H27.1623L28.3494 16.0815Z" fill="#4E49D6"/>
<rect x="0.5" y="0.5" width="35" height="35" rx="3.5" stroke="#D9D9D9"/>
</svg>
