<svg width="15" height="10" viewBox="0 0 15 10" fill="none" xmlns="http://www.w3.org/2000/svg">
<path d="M13.1805 0H1.14613C0.515759 0 0 0.515759 0 1.14613V8.85387C0 9.48424 0.515759 10 1.14613 10H13.1805C13.8109 10 14.3266 9.48424 14.3266 8.85387V1.14613C14.3266 0.515759 13.8109 0 13.1805 0ZM13.7536 8.88252C13.7536 9.19771 13.4957 9.45559 13.1805 9.45559H1.14613C0.830945 9.45559 0.573066 9.19771 0.573066 8.88252V4.29799H13.7536V8.88252ZM13.7536 3.69627H0.573066V2.5788H13.7536V3.69627ZM13.7536 2.00573H0.573066V1.17479C0.573066 0.859599 0.830945 0.601719 1.14613 0.601719H13.1805C13.4957 0.601719 13.7536 0.859599 13.7536 1.17479V2.00573Z" fill="#3F46D6"/>
<path d="M9.68485 8.13754C9.94273 8.13754 10.172 8.08023 10.3725 7.93696C10.5731 8.05158 10.8023 8.13754 11.0602 8.13754C11.7479 8.13754 12.321 7.56447 12.321 6.84814C12.321 6.16046 11.7479 5.58739 11.0602 5.58739C10.8023 5.58739 10.5731 5.67335 10.3725 5.78797C10.172 5.6447 9.94273 5.58739 9.68485 5.58739C8.99717 5.58739 8.42411 6.16046 8.42411 6.84814C8.39546 7.56447 8.96852 8.13754 9.68485 8.13754ZM11.0602 6.16046C11.4327 6.16046 11.7479 6.47565 11.7479 6.84814C11.7479 7.24928 11.4327 7.56447 11.0602 7.56447C10.6877 7.56447 10.3725 7.24928 10.3725 6.84814C10.3439 6.47565 10.6591 6.16046 11.0602 6.16046ZM9.68485 6.16046C9.77081 6.16046 9.88543 6.18911 9.97139 6.21777C9.85677 6.41834 9.79947 6.61891 9.79947 6.84814C9.79947 7.07736 9.85677 7.30659 9.97139 7.47851C9.88543 7.50716 9.79947 7.53582 9.68485 7.53582C9.31236 7.53582 8.99718 7.22063 8.99718 6.81948C8.96852 6.47564 9.28371 6.16046 9.68485 6.16046ZM2.00577 6.5043H5.38686C5.55878 6.5043 5.67339 6.38969 5.67339 6.21777C5.67339 6.04585 5.55878 5.93123 5.38686 5.93123H2.00577C1.83385 5.93123 1.71924 6.04585 1.71924 6.21777C1.71924 6.38969 1.83385 6.5043 2.00577 6.5043ZM2.00577 7.76504H7.16336C7.33528 7.76504 7.4499 7.65043 7.4499 7.47851C7.4499 7.30659 7.33528 7.19198 7.16336 7.19198H2.00577C1.83385 7.19198 1.71924 7.30659 1.71924 7.47851C1.71924 7.65043 1.83385 7.76504 2.00577 7.76504Z" fill="#3F46D6"/>
</svg>
