<svg width="8" height="10" viewBox="0 0 8 10" fill="none" xmlns="http://www.w3.org/2000/svg">
<path d="M6.8 5.2C7.46274 5.2 8 5.73726 8 6.4V6.8C8 8.37716 6.51239 10 4 10C1.48761 10 0 8.37716 0 6.8V6.4C0 5.73726 0.537258 5.2 1.2 5.2H6.8ZM6.8 6H1.2C0.979086 6 0.8 6.17909 0.8 6.4V6.8C0.8 7.95012 1.94573 9.2 4 9.2C6.05427 9.2 7.2 7.95012 7.2 6.8V6.4C7.2 6.17909 7.02091 6 6.8 6ZM4 0C5.21503 0 6.2 0.984974 6.2 2.2C6.2 3.41503 5.21503 4.4 4 4.4C2.78497 4.4 1.8 3.41503 1.8 2.2C1.8 0.984974 2.78497 0 4 0ZM4 0.8C3.2268 0.8 2.6 1.4268 2.6 2.2C2.6 2.9732 3.2268 3.6 4 3.6C4.7732 3.6 5.4 2.9732 5.4 2.2C5.4 1.4268 4.7732 0.8 4 0.8Z" fill="#3F46D6"/>
</svg>
