<svg width="10" height="10" viewBox="0 0 10 10" fill="none" xmlns="http://www.w3.org/2000/svg">
<path fill-rule="evenodd" clip-rule="evenodd" d="M1.22641 4.81132C0.861699 4.81132 0.566038 5.10698 0.566038 5.4717V8.77359C0.566038 9.1383 0.861699 9.43396 1.22641 9.43396H7.83019C8.1949 9.43396 8.49057 9.1383 8.49057 8.77359V5.4717C8.49057 5.10698 8.1949 4.81132 7.83019 4.81132H1.22641ZM0 5.4717C0 4.79437 0.549085 4.24529 1.22641 4.24529H7.83019C8.50752 4.24529 9.0566 4.79437 9.0566 5.4717V8.77359C9.0566 9.45092 8.50752 10 7.83019 10H1.22641C0.549085 10 0 9.45092 0 8.77359V5.4717Z" fill="#3F46D6"/>
<path fill-rule="evenodd" clip-rule="evenodd" d="M4.52835 0.566038C3.9779 0.566038 3.45 0.784703 3.06077 1.17393C2.67154 1.56316 2.45288 2.09106 2.45288 2.64151V4.5283C2.45288 4.68461 2.32617 4.81132 2.16986 4.81132C2.01355 4.81132 1.88684 4.68461 1.88684 4.5283V2.64151C1.88684 1.94094 2.16514 1.26906 2.66052 0.77368C3.1559 0.278301 3.82778 0 4.52835 0C5.22892 0 5.9008 0.278301 6.39618 0.77368C6.89156 1.26906 7.16986 1.94094 7.16986 2.64151V4.5283C7.16986 4.68461 7.04315 4.81132 6.88684 4.81132C6.73053 4.81132 6.60382 4.68461 6.60382 4.5283V2.64151C6.60382 2.09106 6.38516 1.56316 5.99593 1.17393C5.6067 0.784703 5.0788 0.566038 4.52835 0.566038Z" fill="#3F46D6"/>
</svg>
