<svg width="11" height="10" viewBox="0 0 11 10" fill="none" xmlns="http://www.w3.org/2000/svg">
<path d="M2.70833 0C2.36583 0 2.08333 0.2825 2.08333 0.625V0.833333H0.708333C0.308333 0.833333 0 1.18333 0 1.58875V9.245C0 9.65 0.308333 10 0.708333 10H9.70833C10.1083 10 10.4167 9.65 10.4167 9.24458V1.58875C10.4167 1.18333 10.1083 0.833333 9.70833 0.833333H8.33333V0.625C8.33333 0.2825 8.05083 0 7.70833 0C7.36583 0 7.08333 0.2825 7.08333 0.625V0.833333H3.33333V0.625C3.33333 0.2825 3.05083 0 2.70833 0ZM2.70833 0.416667C2.8275 0.416667 2.91667 0.505833 2.91667 0.625V1.875C2.91667 1.99417 2.8275 2.08333 2.70833 2.08333C2.68079 2.08402 2.65339 2.0791 2.6278 2.06887C2.60222 2.05865 2.57898 2.04333 2.55949 2.02384C2.54001 2.00436 2.52469 1.98112 2.51446 1.95553C2.50423 1.92994 2.49931 1.90255 2.5 1.875V0.625C2.5 0.505833 2.58917 0.416667 2.70833 0.416667ZM7.70833 0.416667C7.8275 0.416667 7.91667 0.505833 7.91667 0.625V1.875C7.91667 1.99417 7.8275 2.08333 7.70833 2.08333C7.68079 2.08402 7.65339 2.0791 7.6278 2.06887C7.60222 2.05865 7.57898 2.04333 7.55949 2.02384C7.54001 2.00436 7.52469 1.98112 7.51446 1.95553C7.50423 1.92994 7.49931 1.90255 7.5 1.875V0.625C7.5 0.505833 7.58917 0.416667 7.70833 0.416667ZM0.708333 1.25H2.08333V1.875C2.08333 2.2175 2.36583 2.5 2.70833 2.5C3.05083 2.5 3.33333 2.2175 3.33333 1.875V1.25H7.08333V1.875C7.08333 2.2175 7.36583 2.5 7.70833 2.5C8.05083 2.5 8.33333 2.2175 8.33333 1.875V1.25H9.70833C9.86333 1.25 10 1.3875 10 1.58875V9.245C10 9.44583 9.86333 9.58333 9.70833 9.58333H0.708333C0.553333 9.58333 0.416667 9.44583 0.416667 9.24458V1.58875C0.416667 1.3875 0.553333 1.25 0.708333 1.25ZM5.625 3.33333C5.56975 3.33333 5.51676 3.35528 5.47769 3.39435C5.43862 3.43342 5.41667 3.48641 5.41667 3.54167V4.79167C5.41667 4.84692 5.43862 4.89991 5.47769 4.93898C5.51676 4.97805 5.56975 5 5.625 5H6.875C6.93025 5 6.98324 4.97805 7.02231 4.93898C7.06138 4.89991 7.08333 4.84692 7.08333 4.79167V3.54167C7.08333 3.48641 7.06138 3.43342 7.02231 3.39435C6.98324 3.35528 6.93025 3.33333 6.875 3.33333H5.625ZM7.70833 3.33333C7.65308 3.33333 7.60009 3.35528 7.56102 3.39435C7.52195 3.43342 7.5 3.48641 7.5 3.54167V4.79167C7.5 4.84692 7.52195 4.89991 7.56102 4.93898C7.60009 4.97805 7.65308 5 7.70833 5H8.95833C9.01359 5 9.06658 4.97805 9.10565 4.93898C9.14472 4.89991 9.16667 4.84692 9.16667 4.79167V3.54167C9.16667 3.48641 9.14472 3.43342 9.10565 3.39435C9.06658 3.35528 9.01359 3.33333 8.95833 3.33333H7.70833ZM5.83333 3.75H6.66667V4.58333H5.83333V3.75ZM7.91667 3.75H8.75V4.58333H7.91667V3.75ZM1.45833 5.41667C1.40308 5.41667 1.35009 5.43862 1.31102 5.47769C1.27195 5.51676 1.25 5.56975 1.25 5.625V6.875C1.25 6.93025 1.27195 6.98324 1.31102 7.02231C1.35009 7.06138 1.40308 7.08333 1.45833 7.08333H2.70833C2.76359 7.08333 2.81658 7.06138 2.85565 7.02231C2.89472 6.98324 2.91667 6.93025 2.91667 6.875V5.625C2.91667 5.56975 2.89472 5.51676 2.85565 5.47769C2.81658 5.43862 2.76359 5.41667 2.70833 5.41667H1.45833ZM3.54167 5.41667C3.48641 5.41667 3.43342 5.43862 3.39435 5.47769C3.35528 5.51676 3.33333 5.56975 3.33333 5.625V6.875C3.33333 6.93025 3.35528 6.98324 3.39435 7.02231C3.43342 7.06138 3.48641 7.08333 3.54167 7.08333H4.79167C4.84692 7.08333 4.89991 7.06138 4.93898 7.02231C4.97805 6.98324 5 6.93025 5 6.875V5.625C5 5.56975 4.97805 5.51676 4.93898 5.47769C4.89991 5.43862 4.84692 5.41667 4.79167 5.41667H3.54167ZM5.625 5.41667C5.56975 5.41667 5.51676 5.43862 5.47769 5.47769C5.43862 5.51676 5.41667 5.56975 5.41667 5.625V6.875C5.41667 6.93025 5.43862 6.98324 5.47769 7.02231C5.51676 7.06138 5.56975 7.08333 5.625 7.08333H6.875C6.93025 7.08333 6.98324 7.06138 7.02231 7.02231C7.06138 6.98324 7.08333 6.93025 7.08333 6.875V5.625C7.08333 5.56975 7.06138 5.51676 7.02231 5.47769C6.98324 5.43862 6.93025 5.41667 6.875 5.41667H5.625ZM7.70833 5.41667C7.65308 5.41667 7.60009 5.43862 7.56102 5.47769C7.52195 5.51676 7.5 5.56975 7.5 5.625V6.875C7.5 6.93025 7.52195 6.98324 7.56102 7.02231C7.60009 7.06138 7.65308 7.08333 7.70833 7.08333H8.95833C9.01359 7.08333 9.06658 7.06138 9.10565 7.02231C9.14472 6.98324 9.16667 6.93025 9.16667 6.875V5.625C9.16667 5.56975 9.14472 5.51676 9.10565 5.47769C9.06658 5.43862 9.01359 5.41667 8.95833 5.41667H7.70833ZM1.66667 5.83333H2.5V6.66667H1.66667V5.83333ZM3.75 5.83333H4.58333V6.66667H3.75V5.83333ZM5.83333 5.83333H6.66667V6.66667H5.83333V5.83333ZM7.91667 5.83333H8.75V6.66667H7.91667V5.83333ZM1.45833 7.5C1.40308 7.5 1.35009 7.52195 1.31102 7.56102C1.27195 7.60009 1.25 7.65308 1.25 7.70833V8.95833C1.25 9.01359 1.27195 9.06658 1.31102 9.10565C1.35009 9.14472 1.40308 9.16667 1.45833 9.16667H2.70833C2.76359 9.16667 2.81658 9.14472 2.85565 9.10565C2.89472 9.06658 2.91667 9.01359 2.91667 8.95833V7.70833C2.91667 7.65308 2.89472 7.60009 2.85565 7.56102C2.81658 7.52195 2.76359 7.5 2.70833 7.5H1.45833ZM3.54167 7.5C3.48641 7.5 3.43342 7.52195 3.39435 7.56102C3.35528 7.60009 3.33333 7.65308 3.33333 7.70833V8.95833C3.33333 9.01359 3.35528 9.06658 3.39435 9.10565C3.43342 9.14472 3.48641 9.16667 3.54167 9.16667H4.79167C4.84692 9.16667 4.89991 9.14472 4.93898 9.10565C4.97805 9.06658 5 9.01359 5 8.95833V7.70833C5 7.65308 4.97805 7.60009 4.93898 7.56102C4.89991 7.52195 4.84692 7.5 4.79167 7.5H3.54167ZM5.625 7.5C5.56975 7.5 5.51676 7.52195 5.47769 7.56102C5.43862 7.60009 5.41667 7.65308 5.41667 7.70833V8.95833C5.41667 9.01359 5.43862 9.06658 5.47769 9.10565C5.51676 9.14472 5.56975 9.16667 5.625 9.16667H6.875C6.93025 9.16667 6.98324 9.14472 7.02231 9.10565C7.06138 9.06658 7.08333 9.01359 7.08333 8.95833V7.70833C7.08333 7.65308 7.06138 7.60009 7.02231 7.56102C6.98324 7.52195 6.93025 7.5 6.875 7.5H5.625ZM1.66667 7.91667H2.5V8.75H1.66667V7.91667ZM3.75 7.91667H4.58333V8.75H3.75V7.91667ZM5.83333 7.91667H6.66667V8.75H5.83333V7.91667Z" fill="#3F46D6"/>
</svg>
