<svg width="13" height="9" viewBox="0 0 13 9" fill="none" xmlns="http://www.w3.org/2000/svg">
<path d="M12.9997 1.12784C12.9351 1.43754 12.7348 1.66094 12.51 1.877C10.1619 4.13213 7.81673 6.39032 5.47186 8.64882C5.15546 8.95362 4.78723 9.08675 4.35412 8.94047C4.1964 8.88722 4.04026 8.79051 3.92102 8.67667C2.72155 7.53334 1.52813 6.38389 0.336933 5.23231C-0.144506 4.76684 -0.103803 4.09877 0.419293 3.70583C0.827594 3.39919 1.40284 3.45489 1.80955 3.84538C2.72918 4.72827 3.64723 5.61301 4.56495 6.49774C4.60025 6.53201 4.62378 6.57761 4.6737 6.64708C4.72776 6.57608 4.75066 6.53599 4.78309 6.50478C6.91586 4.45101 9.04959 2.39817 11.1824 0.344402C11.4918 0.0466352 11.8505 -0.0785309 12.2788 0.0506136C12.6528 0.163538 12.8763 0.417237 12.9742 0.778658C12.9816 0.805588 12.9914 0.831907 13 0.858532C12.9997 0.948504 12.9997 1.03817 12.9997 1.12784Z" fill="white"/>
</svg>
