<svg width="18" height="18" viewBox="0 0 18 18" fill="none" xmlns="http://www.w3.org/2000/svg">
<path d="M9.00539 18C4.03482 18.003 0.00296911 13.976 1.63897e-06 9.00539C-0.00296583 4.03483 4.02405 0.00298119 8.99461 1.33514e-05C11.3826 -0.00388908 13.6738 0.943777 15.3613 2.63336C17.0494 4.32009 17.9986 6.60823 18 8.99462C18.003 13.9652 13.9759 17.997 9.00539 18ZM9.00566 0.900364C4.53231 0.897341 0.90354 4.52117 0.900463 8.99451C0.897441 13.4678 4.52132 17.0966 8.99461 17.0996C11.1438 17.1035 13.2059 16.2507 14.7247 14.7301C16.244 13.2122 17.0983 11.1531 17.0998 9.0055C17.1028 4.53221 13.479 0.90344 9.00566 0.900364ZM9.63114 9.00001L12.4957 11.8646C12.6673 12.0396 12.6673 12.3197 12.4957 12.4947C12.3217 12.6723 12.0368 12.6752 11.8592 12.5012L8.99461 9.63658L6.13002 12.5011C5.95499 12.6726 5.6749 12.6726 5.49987 12.5011C5.32232 12.3271 5.31946 12.0422 5.49344 11.8646L8.35804 9.00001L5.49344 6.13541C5.40904 6.051 5.36167 5.93654 5.36161 5.81718C5.36161 5.56857 5.56312 5.367 5.81173 5.36695C5.93114 5.36678 6.04572 5.41426 6.13002 5.49884L8.99461 8.36343L11.8592 5.49884C11.9435 5.41426 12.0581 5.36678 12.1775 5.36695C12.2969 5.367 12.4113 5.41437 12.4957 5.49873C12.6715 5.67452 12.6715 5.95956 12.4957 6.13541L9.63114 9.00001Z" fill="white"/>
</svg>
