<svg width="12" height="10" viewBox="0 0 12 10" fill="none" xmlns="http://www.w3.org/2000/svg">
<path d="M10.2449 1.05937C9.64724 0.460195 8.85505 0.0944947 8.01138 0.0283248C7.16771 -0.0378451 6.3282 0.199878 5.64448 0.698553C4.92717 0.165021 4.03434 -0.0769081 3.1458 0.0214848C2.25725 0.119878 1.43899 0.551284 0.855787 1.22883C0.272584 1.90637 -0.0322384 2.77973 0.00270351 3.67302C0.0376454 4.56631 0.409756 5.41319 1.0441 6.04311L4.54512 9.54976C4.83829 9.83829 5.23314 10 5.64448 10C6.05581 10 6.45066 9.83829 6.74383 9.54976L10.2449 6.04311C10.9031 5.38083 11.2726 4.485 11.2726 3.55124C11.2726 2.61748 10.9031 1.72165 10.2449 1.05937Z" fill="#7A0C0C"/>
</svg>
