<svg width="12" height="10" viewBox="0 0 12 10" fill="none" xmlns="http://www.w3.org/2000/svg">
<path d="M10.2449 1.05937C9.64724 0.460195 8.85505 0.0944947 8.01138 0.0283248C7.16771 -0.0378451 6.3282 0.199878 5.64448 0.698553C4.92717 0.165021 4.03434 -0.0769081 3.1458 0.0214848C2.25725 0.119878 1.43899 0.551284 0.855787 1.22883C0.272584 1.90637 -0.0322384 2.77973 0.00270351 3.67302C0.0376454 4.56631 0.409756 5.41319 1.0441 6.04311L4.54512 9.54976C4.83829 9.83829 5.23314 10 5.64448 10C6.05581 10 6.45066 9.83829 6.74383 9.54976L10.2449 6.04311C10.9031 5.38083 11.2726 4.485 11.2726 3.55124C11.2726 2.61748 10.9031 1.72165 10.2449 1.05937ZM9.44993 5.2651L5.94891 8.76612C5.90907 8.80635 5.86166 8.83828 5.8094 8.86007C5.75715 8.88187 5.70109 8.89309 5.64448 8.89309C5.58786 8.89309 5.53181 8.88187 5.47955 8.86007C5.4273 8.83828 5.37988 8.80635 5.34004 8.76612L1.83902 5.24819C1.39689 4.79624 1.14931 4.18913 1.14931 3.55687C1.14931 2.92462 1.39689 2.31751 1.83902 1.86556C2.28956 1.42074 2.8972 1.17131 3.53033 1.17131C4.16346 1.17131 4.77111 1.42074 5.22165 1.86556C5.27406 1.9184 5.33641 1.96034 5.40511 1.98896C5.47381 2.01759 5.5475 2.03232 5.62193 2.03232C5.69635 2.03232 5.77004 2.01759 5.83874 1.98896C5.90744 1.96034 5.96979 1.9184 6.0222 1.86556C6.47274 1.42074 7.08039 1.17131 7.71352 1.17131C8.34665 1.17131 8.95429 1.42074 9.40483 1.86556C9.85304 2.31159 10.1088 2.91541 10.1172 3.54768C10.1256 4.17994 9.88609 4.79037 9.44993 5.24819V5.2651Z" fill="white"/>
</svg>
