<svg width="7" height="8" viewBox="0 0 7 8" fill="none" xmlns="http://www.w3.org/2000/svg">
<path d="M6.12848 2.49943L2.8687 7.04991C2.84154 7.12176 2.73288 7.16966 2.65138 7.16966C2.62422 7.16966 2.59705 7.16966 2.56989 7.14571C2.46123 7.09781 2.37974 7.00201 2.4069 6.88226L2.8687 3.81667H0.478199C0.36954 3.81667 0.288045 3.76877 0.233716 3.69692C0.179386 3.62508 0.206551 3.52928 0.260881 3.45743L2.97736 0.104438C3.05886 0.00863825 3.16752 -0.0153117 3.27617 0.00863825C3.38483 0.0325882 3.46633 0.128388 3.46633 0.224187V2.14018H5.91116C6.01982 2.14018 6.10132 2.18808 6.15565 2.25993C6.18281 2.33178 6.18281 2.42758 6.12848 2.49943Z" fill="#FFC10A"/>
</svg>
