<svg width="18" height="18" viewBox="0 0 18 18" fill="none" xmlns="http://www.w3.org/2000/svg">
<g filter="url(#filter0_i_0_59)">
<path d="M17.5236 15.1303L13.5582 11.165C14.2486 10.047 14.666 8.74293 14.666 7.33278C14.666 3.28283 11.3831 0 7.33301 0C3.28293 0 0 3.28283 0 7.33278C0 11.3827 3.28293 14.6656 7.33301 14.6656C8.74321 14.6656 10.0474 14.2482 11.1642 13.5589L15.1308 17.5242C15.4501 17.8329 15.8778 18.0037 16.3218 17.9999C16.7659 17.9962 17.1906 17.818 17.5045 17.504C17.8184 17.1899 17.9964 16.7651 17.9999 16.3211C18.0035 15.8771 17.8325 15.4494 17.5236 15.1303ZM7.33301 12.4093C4.52955 12.4093 2.25631 10.1362 2.25631 7.33278C2.25631 4.5294 4.52955 2.25624 7.33301 2.25624C10.1365 2.25624 12.4097 4.5294 12.4097 7.33278C12.4097 10.1362 10.1365 12.4093 7.33301 12.4093Z" fill="white"/>
</g>
<defs>
<filter id="filter0_i_0_59" x="0" y="0" width="19" height="18" filterUnits="userSpaceOnUse" color-interpolation-filters="sRGB">
<feFlood flood-opacity="0" result="BackgroundImageFix"/>
<feBlend mode="normal" in="SourceGraphic" in2="BackgroundImageFix" result="shape"/>
<feColorMatrix in="SourceAlpha" type="matrix" values="0 0 0 0 0 0 0 0 0 0 0 0 0 0 0 0 0 0 127 0" result="hardAlpha"/>
<feOffset dx="1"/>
<feGaussianBlur stdDeviation="0.5"/>
<feComposite in2="hardAlpha" operator="arithmetic" k2="-1" k3="1"/>
<feColorMatrix type="matrix" values="0 0 0 0 0.655833 0 0 0 0 1 0 0 0 0 0.923921 0 0 0 1 0"/>
<feBlend mode="normal" in2="shape" result="effect1_innerShadow_0_59"/>
</filter>
</defs>
</svg>
