<svg width="15" height="15" viewBox="0 0 15 15" fill="none" xmlns="http://www.w3.org/2000/svg">
<path d="M13.7117 6.23194H8.93617V1.2827C8.93617 0.573995 8.36229 0 7.65372 0C6.94515 0 6.37127 0.573995 6.37127 1.2827V6.23194H1.2766C0.573882 6.23194 0 6.80594 0 7.51464C0 8.22335 0.573882 8.79735 1.28245 8.79735H6.37712V13.7173C6.37712 14.426 6.95101 15 7.65957 15C8.36814 15 8.94203 14.426 8.94203 13.7173V8.79735H13.7175C14.4261 8.79735 15 8.22335 15 7.51464C14.9912 6.80594 14.4203 6.23194 13.7117 6.23194Z" fill="white"/>
</svg>
