<svg width="11" height="13" viewBox="0 0 11 13" fill="none" xmlns="http://www.w3.org/2000/svg">
<path d="M5.5 6.5C3.83594 6.5 2.5 5.16406 2.5 3.5C2.5 1.85938 3.83594 0.5 5.5 0.5C7.14062 0.5 8.5 1.85938 8.5 3.5C8.5 5.16406 7.14062 6.5 5.5 6.5ZM7.58594 7.25C9.32031 7.25 10.75 8.67969 10.75 10.4141V11.375C10.75 12.0078 10.2344 12.5 9.625 12.5H1.375C0.742188 12.5 0.25 12.0078 0.25 11.375V10.4141C0.25 8.67969 1.65625 7.25 3.39062 7.25H3.78906C4.30469 7.50781 4.89062 7.625 5.5 7.625C6.10938 7.625 6.67188 7.50781 7.1875 7.25H7.58594Z" fill="white"/>
</svg>
