<svg width="16" height="16" viewBox="0 0 16 16" fill="none" xmlns="http://www.w3.org/2000/svg">
<g clip-path="url(#clip0_149_999)">
<path d="M0.666626 6.00003L1.99996 7.33336C5.31329 4.02003 10.6866 4.02003 14 7.33336L15.3333 6.00003C11.2866 1.95336 4.71996 1.95336 0.666626 6.00003ZM5.99996 11.3334L7.99996 13.3334L9.99996 11.3334C8.89996 10.2267 7.10663 10.2267 5.99996 11.3334ZM3.33329 8.66669L4.66663 10C6.50663 8.16003 9.49329 8.16003 11.3333 10L12.6666 8.66669C10.0933 6.09336 5.91329 6.09336 3.33329 8.66669Z" fill="#BFBFBF"/>
<path d="M6.00012 11.3334L8.00012 13.3334L10.0001 11.3334C8.90012 10.2267 7.10679 10.2267 6.00012 11.3334Z" fill="black"/>
</g>
<defs>
<clipPath id="clip0_149_999">
<rect width="16" height="16" fill="white"/>
</clipPath>
</defs>
</svg>
