<svg width="17" height="16" viewBox="0 0 17 16" fill="none" xmlns="http://www.w3.org/2000/svg">
<path d="M9.14642 12.8536C9.05269 12.7598 9.00003 12.6326 9.00003 12.5C9.00003 12.3674 9.05269 12.2402 9.14642 12.1465L12.7929 8.50001H3C2.86739 8.50001 2.74021 8.44733 2.64645 8.35357C2.55268 8.2598 2.5 8.13262 2.5 8.00001C2.5 7.8674 2.55268 7.74023 2.64645 7.64646C2.74021 7.55269 2.86739 7.50001 3 7.50001H12.7929L9.14642 3.85356C9.1 3.80713 9.06317 3.752 9.03804 3.69134C9.01292 3.63067 8.99999 3.56565 8.99999 3.49999C8.99999 3.43433 9.01293 3.36931 9.03806 3.30865C9.06319 3.24798 9.10002 3.19286 9.14645 3.14643C9.19289 3.10001 9.24801 3.06318 9.30867 3.03805C9.36934 3.01293 9.43436 3 9.50002 3C9.56568 3 9.6307 3.01294 9.69137 3.03807C9.75203 3.0632 9.80715 3.10003 9.85358 3.14647L14.3536 7.64647C14.3552 7.64808 14.3566 7.64988 14.3582 7.65153C14.368 7.66166 14.3776 7.67207 14.3866 7.68299C14.3916 7.6891 14.396 7.69557 14.4007 7.70186C14.4057 7.70863 14.411 7.71528 14.4157 7.72233C14.4206 7.7296 14.4248 7.73716 14.4293 7.74464C14.4332 7.75117 14.4373 7.75755 14.4409 7.76429C14.4449 7.7718 14.4483 7.77955 14.452 7.78721C14.4553 7.79435 14.4589 7.80137 14.4619 7.80867C14.465 7.81605 14.4674 7.82362 14.4701 7.83113C14.473 7.839 14.476 7.84681 14.4784 7.85487C14.4807 7.86235 14.4823 7.86995 14.4843 7.87751C14.4863 7.88575 14.4886 7.89393 14.4903 7.90233C14.492 7.91106 14.4931 7.91984 14.4943 7.9286C14.4954 7.93599 14.4968 7.94322 14.4975 7.95066C14.4991 7.96708 14.5 7.98353 14.5 8.00001C14.5 8.01649 14.4991 8.03294 14.4975 8.04936C14.4968 8.05681 14.4954 8.06404 14.4943 8.07142C14.4931 8.08018 14.492 8.08897 14.4903 8.0977C14.4886 8.10609 14.4863 8.11427 14.4843 8.12251C14.4823 8.13008 14.4807 8.13768 14.4784 8.14515C14.476 8.15321 14.473 8.16102 14.4701 8.1689C14.4674 8.1764 14.465 8.18397 14.4619 8.19136C14.4589 8.19865 14.4553 8.20567 14.452 8.21281C14.4483 8.22047 14.4449 8.22822 14.4409 8.23573C14.4373 8.24247 14.4332 8.24885 14.4293 8.25538C14.4248 8.26286 14.4206 8.27043 14.4157 8.27769C14.411 8.28474 14.4057 8.29139 14.4007 8.29817C14.396 8.30445 14.3916 8.31093 14.3866 8.31703C14.3775 8.32817 14.3677 8.33876 14.3576 8.34907C14.3562 8.35051 14.355 8.35212 14.3536 8.35356L9.85358 12.8536C9.80715 12.9 9.75202 12.9368 9.69136 12.962C9.63069 12.9871 9.56567 13 9.5 13C9.43433 13 9.36931 12.9871 9.30864 12.962C9.24798 12.9368 9.19285 12.9 9.14642 12.8536Z" fill="#99999A"/>
</svg>
