<svg width="24" height="25" viewBox="0 0 24 25" fill="none" xmlns="http://www.w3.org/2000/svg">
<path d="M12.9696 19.7803C12.829 19.6397 12.75 19.4489 12.75 19.25C12.75 19.0511 12.829 18.8604 12.9696 18.7197L18.4394 13.25H3.75C3.55109 13.25 3.36032 13.171 3.21967 13.0303C3.07902 12.8897 3 12.6989 3 12.5C3 12.3011 3.07902 12.1103 3.21967 11.9697C3.36032 11.829 3.55109 11.75 3.75 11.75H18.4394L12.9696 6.28034C12.9 6.21069 12.8447 6.128 12.8071 6.03701C12.7694 5.94601 12.75 5.84848 12.75 5.74998C12.75 5.65149 12.7694 5.55396 12.8071 5.46297C12.8448 5.37197 12.9 5.28929 12.9697 5.21965C13.0393 5.15001 13.122 5.09477 13.213 5.05708C13.304 5.01939 13.4015 5 13.5 5C13.5985 5 13.6961 5.01941 13.787 5.0571C13.878 5.0948 13.9607 5.15005 14.0304 5.2197L20.7804 11.9697C20.7828 11.9721 20.7848 11.9748 20.7872 11.9773C20.802 11.9925 20.8164 12.0081 20.8299 12.0245C20.8374 12.0336 20.844 12.0434 20.851 12.0528C20.8586 12.0629 20.8665 12.0729 20.8736 12.0835C20.8809 12.0944 20.8873 12.1057 20.8939 12.117C20.8998 12.1268 20.9059 12.1363 20.9114 12.1464C20.9174 12.1577 20.9225 12.1693 20.9279 12.1808C20.933 12.1915 20.9383 12.2021 20.9429 12.213C20.9475 12.2241 20.9512 12.2354 20.9552 12.2467C20.9594 12.2585 20.964 12.2702 20.9676 12.2823C20.971 12.2935 20.9735 12.3049 20.9764 12.3163C20.9795 12.3286 20.983 12.3409 20.9855 12.3535C20.9881 12.3666 20.9896 12.3798 20.9915 12.3929C20.9931 12.404 20.9952 12.4148 20.9963 12.426C20.9987 12.4506 21 12.4753 21 12.5C21 12.5247 20.9987 12.5494 20.9963 12.574C20.9952 12.5852 20.9931 12.5961 20.9915 12.6071C20.9896 12.6203 20.9881 12.6335 20.9855 12.6465C20.983 12.6591 20.9795 12.6714 20.9764 12.6838C20.9735 12.6951 20.971 12.7065 20.9676 12.7177C20.964 12.7298 20.9594 12.7415 20.9552 12.7533C20.9512 12.7646 20.9475 12.776 20.9429 12.787C20.9383 12.798 20.933 12.8085 20.9279 12.8192C20.9225 12.8307 20.9174 12.8423 20.9114 12.8536C20.9059 12.8637 20.8998 12.8733 20.8939 12.8831C20.8873 12.8943 20.8809 12.9056 20.8736 12.9165C20.8665 12.9271 20.8586 12.9371 20.851 12.9473C20.844 12.9567 20.8374 12.9664 20.8299 12.9755C20.8162 12.9923 20.8016 13.0081 20.7865 13.0236C20.7843 13.0258 20.7825 13.0282 20.7804 13.0303L14.0304 19.7803C13.9607 19.85 13.878 19.9052 13.787 19.9429C13.696 19.9806 13.5985 20 13.5 20C13.4015 20 13.304 19.9806 13.213 19.9429C13.122 19.9052 13.0393 19.85 12.9696 19.7803Z" fill="#F04E4C"/>
</svg>
