<svg width="24" height="24" viewBox="0 0 24 24" fill="none" xmlns="http://www.w3.org/2000/svg">
<mask id="path-1-inside-1_3038_2908" fill="white">
<path d="M11.0304 19.2803C11.171 19.1397 11.25 18.9489 11.25 18.75C11.25 18.5511 11.171 18.3604 11.0304 18.2197L5.56064 12.75H20.25C20.4489 12.75 20.6397 12.671 20.7803 12.5303C20.921 12.3897 21 12.1989 21 12C21 11.8011 20.921 11.6103 20.7803 11.4697C20.6397 11.329 20.4489 11.25 20.25 11.25H5.56064L11.0304 5.78034C11.171 5.63967 11.25 5.4489 11.25 5.24998C11.25 5.05107 11.171 4.8603 11.0303 4.71965C10.8897 4.579 10.6989 4.49999 10.5 4.5C10.3011 4.50001 10.1103 4.57904 9.96964 4.7197L3.21963 11.4697C3.21719 11.4721 3.21517 11.4748 3.21277 11.4773C3.19796 11.4925 3.18359 11.5081 3.1701 11.5245C3.16257 11.5336 3.15601 11.5434 3.14898 11.5528C3.14139 11.5629 3.13348 11.5729 3.12639 11.5835C3.11908 11.5944 3.11274 11.6057 3.10606 11.617C3.10022 11.6268 3.09407 11.6363 3.08864 11.6464C3.08262 11.6577 3.0775 11.6693 3.07207 11.6808C3.06701 11.6915 3.06168 11.7021 3.05713 11.713C3.05255 11.7241 3.04884 11.7354 3.04481 11.7467C3.04056 11.7585 3.03602 11.7702 3.03236 11.7823C3.02897 11.7935 3.02648 11.8049 3.02362 11.8163C3.0205 11.8286 3.01703 11.8409 3.01453 11.8535C3.01194 11.8666 3.01039 11.8798 3.00851 11.8929C3.00693 11.904 3.00483 11.9148 3.00373 11.926C3.00131 11.9506 3 11.9753 3 12C3 12.0247 3.00131 12.0494 3.00373 12.074C3.00483 12.0852 3.00693 12.0961 3.00851 12.1071C3.01039 12.1203 3.01194 12.1335 3.01453 12.1465C3.01703 12.1591 3.0205 12.1714 3.02362 12.1838C3.02648 12.1951 3.02897 12.2065 3.03236 12.2177C3.03602 12.2298 3.04056 12.2415 3.04481 12.2533C3.04884 12.2646 3.05255 12.276 3.05713 12.287C3.06168 12.298 3.06701 12.3085 3.07207 12.3192C3.0775 12.3307 3.08262 12.3423 3.08864 12.3536C3.09407 12.3637 3.10022 12.3733 3.10606 12.3831C3.11274 12.3943 3.11908 12.4056 3.12639 12.4165C3.13348 12.4271 3.14138 12.4371 3.14898 12.4473C3.15601 12.4567 3.16257 12.4664 3.1701 12.4755C3.18381 12.4922 3.19844 12.5081 3.21355 12.5236C3.21568 12.5258 3.21746 12.5282 3.21963 12.5303L9.96964 19.2803C10.0393 19.35 10.122 19.4052 10.213 19.4429C10.304 19.4806 10.4015 19.5 10.5 19.5C10.5985 19.5 10.696 19.4806 10.787 19.4429C10.878 19.4052 10.9607 19.35 11.0304 19.2803Z"/>
</mask>
<path d="M11.0304 19.2803C11.171 19.1397 11.25 18.9489 11.25 18.75C11.25 18.5511 11.171 18.3604 11.0304 18.2197L5.56064 12.75H20.25C20.4489 12.75 20.6397 12.671 20.7803 12.5303C20.921 12.3897 21 12.1989 21 12C21 11.8011 20.921 11.6103 20.7803 11.4697C20.6397 11.329 20.4489 11.25 20.25 11.25H5.56064L11.0304 5.78034C11.171 5.63967 11.25 5.4489 11.25 5.24998C11.25 5.05107 11.171 4.8603 11.0303 4.71965C10.8897 4.579 10.6989 4.49999 10.5 4.5C10.3011 4.50001 10.1103 4.57904 9.96964 4.7197L3.21963 11.4697C3.21719 11.4721 3.21517 11.4748 3.21277 11.4773C3.19796 11.4925 3.18359 11.5081 3.1701 11.5245C3.16257 11.5336 3.15601 11.5434 3.14898 11.5528C3.14139 11.5629 3.13348 11.5729 3.12639 11.5835C3.11908 11.5944 3.11274 11.6057 3.10606 11.617C3.10022 11.6268 3.09407 11.6363 3.08864 11.6464C3.08262 11.6577 3.0775 11.6693 3.07207 11.6808C3.06701 11.6915 3.06168 11.7021 3.05713 11.713C3.05255 11.7241 3.04884 11.7354 3.04481 11.7467C3.04056 11.7585 3.03602 11.7702 3.03236 11.7823C3.02897 11.7935 3.02648 11.8049 3.02362 11.8163C3.0205 11.8286 3.01703 11.8409 3.01453 11.8535C3.01194 11.8666 3.01039 11.8798 3.00851 11.8929C3.00693 11.904 3.00483 11.9148 3.00373 11.926C3.00131 11.9506 3 11.9753 3 12C3 12.0247 3.00131 12.0494 3.00373 12.074C3.00483 12.0852 3.00693 12.0961 3.00851 12.1071C3.01039 12.1203 3.01194 12.1335 3.01453 12.1465C3.01703 12.1591 3.0205 12.1714 3.02362 12.1838C3.02648 12.1951 3.02897 12.2065 3.03236 12.2177C3.03602 12.2298 3.04056 12.2415 3.04481 12.2533C3.04884 12.2646 3.05255 12.276 3.05713 12.287C3.06168 12.298 3.06701 12.3085 3.07207 12.3192C3.0775 12.3307 3.08262 12.3423 3.08864 12.3536C3.09407 12.3637 3.10022 12.3733 3.10606 12.3831C3.11274 12.3943 3.11908 12.4056 3.12639 12.4165C3.13348 12.4271 3.14138 12.4371 3.14898 12.4473C3.15601 12.4567 3.16257 12.4664 3.1701 12.4755C3.18381 12.4922 3.19844 12.5081 3.21355 12.5236C3.21568 12.5258 3.21746 12.5282 3.21963 12.5303L9.96964 19.2803C10.0393 19.35 10.122 19.4052 10.213 19.4429C10.304 19.4806 10.4015 19.5 10.5 19.5C10.5985 19.5 10.696 19.4806 10.787 19.4429C10.878 19.4052 10.9607 19.35 11.0304 19.2803Z" fill="black"/>
<path d="M11.25 18.75H12.75H11.25ZM11.0304 18.2197L12.0913 17.1593L12.091 17.159L11.0304 18.2197ZM5.56064 12.75V11.25H1.9393L4.49998 13.8107L5.56064 12.75ZM5.56064 11.25L4.49998 10.1894L1.9393 12.75H5.56064V11.25ZM11.0304 5.78034L12.091 6.841L12.0911 6.84095L11.0304 5.78034ZM9.96964 4.7197L11.0303 5.78036L11.0303 5.78031L9.96964 4.7197ZM3.21963 11.4697L4.2754 12.5353L4.28029 12.5304L3.21963 11.4697ZM3.21277 11.4773L4.28696 12.5243L4.28821 12.523L3.21277 11.4773ZM3.1701 11.5245L2.01171 10.5715L2.01159 10.5717L3.1701 11.5245ZM3.14898 11.5528L4.35057 12.4507L4.35176 12.4491L3.14898 11.5528ZM3.12639 11.5835L1.881 10.7474L1.88033 10.7484L3.12639 11.5835ZM3.10606 11.617L1.81751 10.8491L1.81747 10.8492L3.10606 11.617ZM3.08864 11.6464L1.76668 10.9376L1.76581 10.9393L3.08864 11.6464ZM3.07207 11.6808L4.42824 12.3218L4.42849 12.3212L3.07207 11.6808ZM3.05713 11.713L1.67232 11.1365L1.67084 11.1401L3.05713 11.713ZM3.04481 11.7467L4.45597 12.2553L4.45716 12.2519L3.04481 11.7467ZM3.03236 11.7823L1.59687 11.3471L1.59642 11.3486L3.03236 11.7823ZM3.02362 11.8163L1.56911 11.4497L1.56904 11.4499L3.02362 11.8163ZM3.01453 11.8535L1.54313 11.562L1.54298 11.5628L3.01453 11.8535ZM3.00851 11.8929L1.52359 11.6808L1.52353 11.6812L3.00851 11.8929ZM3.00373 11.926L4.49651 12.073L4.49656 12.0725L3.00373 11.926ZM3.00373 12.074L4.49652 11.9272L4.49651 11.927L3.00373 12.074ZM3.00851 12.1071L1.52349 12.3186L1.52356 12.3191L3.00851 12.1071ZM3.01453 12.1465L1.54297 12.4373L1.54314 12.4381L3.01453 12.1465ZM3.02362 12.1838L1.56901 12.55L1.56911 12.5504L3.02362 12.1838ZM3.03236 12.2177L1.59642 12.6514L1.59685 12.6528L3.03236 12.2177ZM3.04481 12.2533L4.45706 11.7478L4.45594 11.7447L3.04481 12.2533ZM3.05713 12.287L1.67083 12.8599L1.67232 12.8635L3.05713 12.287ZM3.07207 12.3192L4.42849 11.6788L4.42845 11.6787L3.07207 12.3192ZM3.08864 12.3536L1.76581 13.0608L1.76668 13.0624L3.08864 12.3536ZM3.10606 12.3831L4.39461 11.6152L4.39456 11.6151L3.10606 12.3831ZM3.12639 12.4165L1.88033 13.2516L1.88085 13.2524L3.12639 12.4165ZM3.14898 12.4473L4.35147 11.5506L4.35015 11.5488L3.14898 12.4473ZM3.1701 12.4755L4.32969 11.524L4.3285 11.5226L3.1701 12.4755ZM3.21355 12.5236L2.14023 13.5715L2.14618 13.5775L3.21355 12.5236ZM3.21963 12.5303L4.28031 11.4697L4.27476 11.4642L3.21963 12.5303ZM9.96964 19.2803L11.0303 18.2197L11.0303 18.2197L9.96964 19.2803ZM12.0913 20.3407C12.513 19.9188 12.75 19.3466 12.75 18.75H9.74995C9.74995 18.5512 9.82891 18.3605 9.96944 18.2199L12.0913 20.3407ZM12.75 18.75C12.75 18.1534 12.513 17.5813 12.0913 17.1593L9.96944 19.2801C9.82891 19.1395 9.74995 18.9488 9.74995 18.75H12.75ZM12.091 17.159L6.62129 11.6894L4.49998 13.8107L9.96971 19.2804L12.091 17.159ZM5.56064 14.25H20.25V11.25H5.56064V14.25ZM20.25 14.25C20.8467 14.25 21.419 14.013 21.841 13.591L19.7197 11.4697C19.8603 11.329 20.0511 11.25 20.25 11.25V14.25ZM21.841 13.591C22.263 13.169 22.5 12.5968 22.5 12H19.5C19.5 11.8011 19.579 11.6103 19.7197 11.4697L21.841 13.591ZM22.5 12C22.5 11.4033 22.2629 10.831 21.841 10.409L19.7197 12.5303C19.579 12.3897 19.5 12.1989 19.5 12H22.5ZM21.841 10.409C21.419 9.98707 20.8467 9.75002 20.25 9.75002V12.75C20.0511 12.75 19.8603 12.671 19.7197 12.5303L21.841 10.409ZM20.25 9.75002H5.56064V12.75H20.25V9.75002ZM6.62129 12.3107L12.091 6.841L9.96971 4.71967L4.49998 10.1894L6.62129 12.3107ZM12.0911 6.84095C12.513 6.41897 12.75 5.84666 12.75 5.24992L9.75002 5.25005C9.75001 5.05114 9.82902 4.86038 9.96966 4.71972L12.0911 6.84095ZM12.75 5.24992C12.75 4.65318 12.5129 4.08089 12.0909 3.65895L9.96971 5.78036C9.82905 5.63971 9.75003 5.44896 9.75002 5.25005L12.75 5.24992ZM12.0909 3.65895C11.669 3.237 11.0966 2.99997 10.4999 3L10.5 6C10.3011 6.00001 10.1104 5.921 9.96971 5.78036L12.0909 3.65895ZM10.4999 3C9.90316 3.00003 9.33087 3.23711 8.90893 3.65908L11.0303 5.78031C10.8897 5.92097 10.6989 5.99999 10.5 6L10.4999 3ZM8.90897 3.65904L2.15897 10.409L4.28029 12.5304L11.0303 5.78036L8.90897 3.65904ZM2.16388 10.4042C2.1378 10.43 2.11726 10.4522 2.1038 10.4671C2.097 10.4747 2.09142 10.481 2.08758 10.4854C2.08388 10.4897 2.08094 10.4931 2.08012 10.494C2.0783 10.4961 2.08023 10.4939 2.08127 10.4927C2.08295 10.4907 2.08648 10.4867 2.09105 10.4815C2.10003 10.4714 2.11619 10.4534 2.13733 10.4316L4.28821 12.523C4.31055 12.5 4.32786 12.4807 4.33798 12.4693C4.34311 12.4635 4.3472 12.4588 4.34943 12.4562C4.35057 12.4549 4.35149 12.4538 4.35191 12.4533C4.35212 12.4531 4.35232 12.4529 4.35235 12.4528C4.35242 12.4527 4.35235 12.4528 4.35225 12.453C4.35199 12.4533 4.3496 12.456 4.34646 12.4596C4.34318 12.4634 4.33816 12.4691 4.33193 12.476C4.31961 12.4896 4.30025 12.5106 4.27539 12.5352L2.16388 10.4042ZM2.13858 10.4303C2.10467 10.4651 2.05989 10.513 2.01171 10.5715L4.3285 12.4774C4.30729 12.5032 4.29124 12.5199 4.28696 12.5243L2.13858 10.4303ZM2.01159 10.5717C1.98003 10.6101 1.95636 10.6424 1.94717 10.655C1.94462 10.6585 1.94244 10.6615 1.94117 10.6633C1.93908 10.6662 1.93983 10.6651 1.93901 10.6663C1.93844 10.667 1.9416 10.6627 1.9462 10.6565L4.35176 12.4491C4.35987 12.4382 4.36648 12.429 4.36936 12.4251C4.37015 12.424 4.37087 12.423 4.37134 12.4223C4.37191 12.4216 4.37211 12.4213 4.37236 12.4209C4.37281 12.4203 4.37236 12.4209 4.37153 12.4221C4.36996 12.4242 4.36506 12.4309 4.35824 12.4399C4.35128 12.449 4.34123 12.462 4.32862 12.4773L2.01159 10.5717ZM1.94738 10.6549C1.94923 10.6524 1.95045 10.6508 1.94828 10.6537C1.94712 10.6552 1.94227 10.6616 1.93712 10.6685C1.92674 10.6823 1.90546 10.711 1.881 10.7474L4.37177 12.4196C4.36272 12.4331 4.35497 12.444 4.34934 12.4518C4.34379 12.4596 4.33958 12.4652 4.33787 12.4675C4.33654 12.4693 4.33553 12.4706 4.33821 12.4671C4.33987 12.4649 4.34493 12.4582 4.35057 12.4507L1.94738 10.6549ZM1.88033 10.7484C1.85517 10.786 1.83622 10.8175 1.8269 10.8331C1.82228 10.8409 1.81809 10.8481 1.81699 10.8499C1.81502 10.8533 1.81601 10.8516 1.81751 10.8491L4.39461 12.3848C4.39946 12.3767 4.40374 12.3694 4.40507 12.3671C4.40727 12.3634 4.40637 12.3649 4.40509 12.3671C4.40243 12.3715 4.3903 12.3919 4.37244 12.4186L1.88033 10.7484ZM1.81747 10.8492C1.82008 10.8448 1.82187 10.8418 1.82081 10.8436C1.82058 10.844 1.82038 10.8443 1.81992 10.8451C1.81952 10.8457 1.81895 10.8466 1.81833 10.8477C1.81709 10.8497 1.81522 10.8528 1.81307 10.8563C1.8052 10.8694 1.78716 10.8994 1.76668 10.9376L4.4106 12.3553C4.40273 12.3699 4.39594 12.3819 4.39106 12.3903C4.38626 12.3986 4.38262 12.4047 4.38133 12.4068C4.38064 12.408 4.38026 12.4086 4.38051 12.4082C4.38131 12.4069 4.38073 12.4078 4.38247 12.405C4.38437 12.4018 4.38913 12.394 4.39466 12.3848L1.81747 10.8492ZM1.76581 10.9393C1.74578 10.9767 1.73087 11.008 1.72347 11.0236C1.7198 11.0314 1.71648 11.0386 1.71553 11.0407C1.7139 11.0442 1.71459 11.0427 1.71565 11.0404L4.42849 12.3212C4.43227 12.3132 4.43563 12.306 4.43668 12.3037C4.4384 12.3 4.43776 12.3014 4.4368 12.3034C4.4356 12.306 4.4327 12.3121 4.42865 12.3203C4.42455 12.3286 4.41877 12.34 4.41148 12.3536L1.76581 10.9393ZM1.7159 11.0399C1.71722 11.0371 1.71809 11.0353 1.7167 11.0382C1.716 11.0396 1.71273 11.0464 1.70933 11.0536C1.70242 11.0681 1.68817 11.0985 1.67232 11.1365L4.44193 12.2895C4.43605 12.3036 4.43092 12.3152 4.42717 12.3235C4.42347 12.3317 4.42063 12.3377 4.41949 12.3401C4.41862 12.3419 4.41792 12.3433 4.41979 12.3395C4.42096 12.337 4.4244 12.3299 4.42824 12.3218L1.7159 11.0399ZM1.67084 11.1401C1.65467 11.1792 1.64301 11.2116 1.6375 11.2271C1.63478 11.2347 1.63226 11.242 1.63173 11.2435C1.63066 11.2466 1.63136 11.2445 1.63246 11.2415L4.45716 12.2519C4.46028 12.2432 4.46295 12.2356 4.46385 12.233C4.4653 12.2288 4.46474 12.2305 4.46403 12.2325C4.46309 12.2351 4.46077 12.2416 4.4575 12.2502C4.45419 12.259 4.44946 12.2713 4.44342 12.2859L1.67084 11.1401ZM1.63366 11.2381C1.63426 11.2364 1.63472 11.2352 1.63322 11.2393C1.63225 11.2419 1.62952 11.2494 1.6265 11.2578C1.62049 11.2745 1.60907 11.3069 1.59687 11.3471L4.46785 12.2175C4.45931 12.2456 4.45199 12.2661 4.45022 12.271C4.44933 12.2735 4.44876 12.275 4.44996 12.2718C4.45062 12.27 4.45323 12.2628 4.45597 12.2553L1.63366 11.2381ZM1.59642 11.3486C1.58403 11.3896 1.57557 11.4233 1.5718 11.4386C1.56999 11.4459 1.56817 11.4534 1.56801 11.4541C1.56741 11.4565 1.56807 11.4538 1.56911 11.4497L4.47813 12.1829C4.4806 12.1731 4.48264 12.1646 4.48342 12.1615C4.48463 12.1564 4.48419 12.1583 4.48378 12.1599C4.48316 12.1624 4.48148 12.1692 4.47906 12.1782C4.47659 12.1874 4.47301 12.2004 4.4683 12.216L1.59642 11.3486ZM1.56904 11.4499C1.56988 11.4466 1.57046 11.4444 1.56959 11.4477C1.56916 11.4494 1.5671 11.4573 1.56498 11.4656C1.56066 11.4826 1.55184 11.518 1.54313 11.562L4.48593 12.145C4.48269 12.1614 4.47968 12.1748 4.47743 12.1845C4.47521 12.194 4.47343 12.2011 4.47271 12.2039C4.47216 12.2061 4.4717 12.2078 4.47288 12.2033C4.47362 12.2005 4.4758 12.1921 4.4782 12.1826L1.56904 11.4499ZM1.54298 11.5628C1.53449 11.6057 1.52921 11.641 1.52658 11.6593C1.52526 11.6685 1.52414 11.6767 1.52375 11.6795C1.52314 11.684 1.52332 11.6826 1.52359 11.6808L4.49343 12.1051C4.49464 12.0966 4.49572 12.0887 4.49601 12.0865C4.49652 12.0828 4.49631 12.0844 4.49593 12.087C4.49519 12.0922 4.49198 12.1144 4.48609 12.1442L1.54298 11.5628ZM1.52353 11.6812C1.5248 11.6723 1.52581 11.666 1.52582 11.6659C1.52584 11.6658 1.52583 11.6658 1.52577 11.6662C1.52559 11.6674 1.52572 11.6665 1.52545 11.6682C1.52518 11.6699 1.52464 11.6733 1.52403 11.6772C1.52185 11.6911 1.51572 11.7304 1.5109 11.7795L4.49656 12.0725C4.4946 12.0925 4.49253 12.1089 4.49098 12.1202C4.48947 12.1313 4.4882 12.1394 4.48785 12.1417C4.48767 12.1428 4.48757 12.1435 4.48774 12.1424C4.48779 12.142 4.48828 12.139 4.48869 12.1365C4.48957 12.1309 4.49144 12.1191 4.49349 12.1046L1.52353 11.6812ZM1.51095 11.779C1.50409 11.8486 1.5 11.9225 1.5 12H4.5C4.5 12.0281 4.49852 12.0526 4.49651 12.073L1.51095 11.779ZM1.5 12C1.5 12.0775 1.50409 12.1514 1.51095 12.221L4.49651 11.927C4.49852 11.9474 4.5 11.9719 4.5 12H1.5ZM1.51094 12.2209C1.51575 12.2699 1.52187 12.3091 1.52403 12.3229C1.52464 12.3267 1.52517 12.3301 1.52544 12.3318C1.52567 12.3332 1.52561 12.3328 1.52575 12.3337C1.52582 12.3341 1.52582 12.3341 1.5258 12.334C1.52577 12.3338 1.52476 12.3275 1.52349 12.3186L4.49354 11.8957C4.49148 11.8812 4.48961 11.8694 4.48871 11.8637C4.48829 11.8611 4.48782 11.8581 4.48775 11.8577C4.48758 11.8566 4.48767 11.8572 4.48785 11.8584C4.48819 11.8606 4.48946 11.8686 4.49096 11.8797C4.4925 11.891 4.49457 11.9073 4.49652 11.9272L1.51094 12.2209ZM1.52356 12.3191C1.5233 12.3173 1.52313 12.316 1.52374 12.3205C1.52414 12.3234 1.52526 12.3316 1.52658 12.3407C1.52923 12.3591 1.5345 12.3944 1.54298 12.4373L4.48609 11.8558C4.49197 11.8856 4.49518 11.9078 4.49593 11.913C4.4963 11.9156 4.49652 11.9172 4.49602 11.9135C4.49573 11.9114 4.49466 11.9036 4.49346 11.8952L1.52356 12.3191ZM1.54314 12.4381C1.55186 12.4821 1.56067 12.5174 1.56498 12.5344C1.56709 12.5427 1.56916 12.5506 1.56958 12.5522C1.57044 12.5556 1.56986 12.5534 1.56901 12.55L4.47823 11.8175C4.47582 11.808 4.47363 11.7996 4.47289 11.7968C4.47171 11.7922 4.47216 11.7939 4.47271 11.7961C4.47343 11.7989 4.4752 11.806 4.47742 11.8155C4.47967 11.8251 4.48268 11.8386 4.48592 11.855L1.54314 12.4381ZM1.56911 12.5504C1.56807 12.5462 1.56741 12.5435 1.56801 12.546C1.56818 12.5467 1.57 12.5542 1.5718 12.5615C1.57558 12.5767 1.58404 12.6104 1.59642 12.6514L4.4683 11.7841C4.473 11.7996 4.47659 11.8126 4.47905 11.8218C4.48148 11.8309 4.48316 11.8376 4.48378 11.8401C4.48418 11.8417 4.48463 11.8436 4.48342 11.8386C4.48264 11.8354 4.4806 11.827 4.47813 11.8172L1.56911 12.5504ZM1.59685 12.6528C1.60905 12.6931 1.62048 12.7255 1.6265 12.7422C1.62952 12.7507 1.63225 12.7581 1.63323 12.7608C1.63473 12.7649 1.63428 12.7636 1.63369 12.762L4.45594 11.7447C4.45322 11.7371 4.4506 11.73 4.44995 11.7282C4.44876 11.725 4.44933 11.7265 4.45023 11.729C4.452 11.734 4.45933 11.7545 4.46787 11.7826L1.59685 12.6528ZM1.63257 12.7589C1.63144 12.7557 1.63071 12.7536 1.63175 12.7566C1.63225 12.758 1.63478 12.7653 1.63747 12.7729C1.64296 12.7883 1.65464 12.8207 1.67084 12.8599L4.44342 11.7141C4.44948 11.7288 4.45422 11.7411 4.45754 11.7499C4.46081 11.7586 4.46313 11.7651 4.46406 11.7677C4.46475 11.7696 4.46531 11.7712 4.46383 11.767C4.46291 11.7643 4.46021 11.7566 4.45705 11.7478L1.63257 12.7589ZM1.67232 12.8635C1.68822 12.9017 1.70253 12.9321 1.70939 12.9466C1.71276 12.9537 1.71603 12.9605 1.71667 12.9618C1.71801 12.9646 1.71709 12.9627 1.7157 12.9597L4.42845 11.6787C4.42453 11.6704 4.42104 11.6632 4.41982 11.6606C4.41789 11.6566 4.4186 11.6581 4.41943 11.6598C4.42055 11.6622 4.42339 11.6682 4.4271 11.6764C4.43086 11.6847 4.43601 11.6964 4.44193 11.7106L1.67232 12.8635ZM1.71565 12.9596C1.71458 12.9574 1.71389 12.9559 1.71551 12.9594C1.71647 12.9614 1.71978 12.9686 1.72346 12.9764C1.73085 12.992 1.74577 13.0233 1.76581 13.0608L4.41148 11.6464C4.41878 11.6601 4.42457 11.6715 4.42866 11.6798C4.43271 11.688 4.43561 11.6941 4.43681 11.6966C4.43777 11.6987 4.43842 11.7001 4.43669 11.6963C4.43564 11.6941 4.43228 11.6868 4.42849 11.6788L1.71565 12.9596ZM1.76668 13.0624C1.78714 13.1006 1.80517 13.1306 1.81306 13.1437C1.81522 13.1473 1.81708 13.1503 1.81833 13.1524C1.81896 13.1534 1.81953 13.1544 1.81993 13.155C1.8204 13.1558 1.82061 13.1561 1.82084 13.1565C1.82192 13.1583 1.82015 13.1554 1.81756 13.151L4.39456 11.6151C4.38906 11.6059 4.38433 11.5981 4.38244 11.595C4.38077 11.5923 4.38124 11.5931 4.3805 11.5918C4.38027 11.5915 4.38065 11.5921 4.38134 11.5932C4.38264 11.5954 4.38628 11.6014 4.39108 11.6097C4.39596 11.6182 4.40274 11.6301 4.4106 11.6448L1.76668 13.0624ZM1.81751 13.1509C1.81601 13.1484 1.81502 13.1467 1.81699 13.1501C1.81809 13.152 1.82228 13.1591 1.8269 13.1669C1.83622 13.1826 1.85517 13.2141 1.88033 13.2516L4.37244 11.5815C4.3903 11.6081 4.40243 11.6285 4.40509 11.633C4.40637 11.6351 4.40727 11.6367 4.40507 11.6329C4.40374 11.6306 4.39946 11.6233 4.39461 11.6152L1.81751 13.1509ZM1.88085 13.2524C1.90528 13.2888 1.92656 13.3175 1.93705 13.3315C1.94227 13.3384 1.94714 13.3448 1.9484 13.3465C1.95068 13.3495 1.94953 13.348 1.94781 13.3457L4.35015 11.5488C4.34463 11.5414 4.33964 11.5349 4.33808 11.5328C4.3355 11.5294 4.33652 11.5308 4.33793 11.5326C4.3397 11.535 4.34393 11.5407 4.3495 11.5484C4.35514 11.5563 4.36289 11.5672 4.37192 11.5807L1.88085 13.2524ZM1.94649 13.3439C1.94177 13.3376 1.93854 13.3331 1.93904 13.3338C1.93973 13.3348 1.93916 13.334 1.94113 13.3367C1.94238 13.3384 1.94454 13.3414 1.94709 13.3449C1.95623 13.3575 1.98 13.3899 2.01171 13.4285L4.3285 11.5226C4.34119 11.538 4.3513 11.551 4.35829 11.5602C4.36515 11.5692 4.37007 11.576 4.37162 11.5781C4.37243 11.5792 4.37288 11.5798 4.3724 11.5792C4.37213 11.5788 4.37195 11.5785 4.37135 11.5777C4.37087 11.577 4.37014 11.576 4.36934 11.5749C4.36639 11.5709 4.3597 11.5616 4.35147 11.5506L1.94649 13.3439ZM2.01052 13.427C2.05971 13.487 2.1055 13.5359 2.14025 13.5715L4.28684 11.4757C4.29138 11.4804 4.30792 11.4975 4.32969 11.524L2.01052 13.427ZM2.14618 13.5775C2.12223 13.5533 2.10393 13.533 2.09352 13.5213C2.0882 13.5153 2.08406 13.5105 2.08189 13.508C2.08014 13.506 2.07822 13.5038 2.07954 13.5053C2.08001 13.5059 2.08285 13.5092 2.08638 13.5132C2.09009 13.5175 2.09569 13.5239 2.10256 13.5315C2.11611 13.5466 2.13734 13.5696 2.16451 13.5965L4.27476 11.4642C4.30084 11.49 4.32103 11.5119 4.33358 11.5259C4.33994 11.5329 4.34503 11.5388 4.34825 11.5424C4.34988 11.5443 4.35121 11.5459 4.35208 11.5469C4.35291 11.5478 4.35353 11.5485 4.35361 11.5486C4.35401 11.5491 4.3532 11.5482 4.35284 11.5477C4.35225 11.5471 4.35115 11.5458 4.34978 11.5442C4.34712 11.5411 4.34248 11.5358 4.33666 11.5292C4.32525 11.5164 4.30592 11.495 4.28091 11.4697L2.14618 13.5775ZM2.15897 13.591L8.90897 20.341L11.0303 18.2197L4.28029 11.4697L2.15897 13.591ZM8.90895 20.341C9.11788 20.5499 9.36593 20.7157 9.63893 20.8287L10.787 18.0571C10.878 18.0948 10.9607 18.1501 11.0303 18.2197L8.90895 20.341ZM9.63893 20.8287C9.91192 20.9418 10.2045 21 10.5 21V18C10.5985 18 10.696 18.0194 10.787 18.0571L9.63893 20.8287ZM10.5 21C10.7955 21 11.0881 20.9418 11.3611 20.8287L10.213 18.0571C10.304 18.0194 10.4015 18 10.5 18V21ZM11.3611 20.8287C11.6341 20.7157 11.8821 20.5499 12.0911 20.341L9.96968 18.2197C10.0393 18.1501 10.122 18.0948 10.213 18.0571L11.3611 20.8287Z" fill="#99999A" mask="url(#path-1-inside-1_3038_2908)"/>
</svg>
