<svg width="60" height="60" viewBox="0 0 60 60" fill="none" xmlns="http://www.w3.org/2000/svg">
<path d="M30 0.75C24.2149 0.75 18.5597 2.46548 13.7496 5.67951C8.93945 8.89355 5.1904 13.4618 2.97654 18.8065C0.762674 24.1512 0.183426 30.0324 1.31204 35.7064C2.44066 41.3803 5.22645 46.5922 9.31714 50.6829C13.4078 54.7736 18.6197 57.5594 24.2936 58.688C29.9676 59.8166 35.8488 59.2373 41.1935 57.0235C46.5382 54.8096 51.1065 51.0606 54.3205 46.2504C57.5345 41.4403 59.25 35.7851 59.25 30C59.241 22.2452 56.1565 14.8105 50.673 9.32703C45.1895 3.84353 37.7548 0.758963 30 0.75V0.75ZM43.9307 24.8782L27.4292 40.6282C27.0096 41.0274 26.4527 41.25 25.8736 41.25C25.2944 41.25 24.7375 41.0274 24.3179 40.6282L16.0693 32.7532C15.6384 32.3404 15.3889 31.7734 15.3757 31.1768C15.3625 30.5802 15.5867 30.0028 15.9989 29.5713C16.4112 29.1398 16.9778 28.8897 17.5744 28.8757C18.171 28.8617 18.7487 29.0851 19.1807 29.4968L25.8735 35.8887L40.8193 21.6218C41.2513 21.2101 41.8291 20.9867 42.4256 21.0007C43.0222 21.0147 43.5889 21.2648 44.0011 21.6963C44.4134 22.1278 44.6375 22.7052 44.6243 23.3018C44.6111 23.8984 44.3616 24.4654 43.9307 24.8782V24.8782Z" fill="#26E3D2"/>
</svg>
