<svg width="17" height="16" viewBox="0 0 17 16" fill="none" xmlns="http://www.w3.org/2000/svg">
<path d="M6.83336 12C6.7677 12.0001 6.70266 11.9872 6.64199 11.9621C6.58132 11.937 6.52622 11.9001 6.47985 11.8536L2.97985 8.35386C2.93342 8.30744 2.89658 8.25232 2.87145 8.19166C2.84632 8.131 2.83338 8.06599 2.83337 8.00033C2.83337 7.93467 2.8463 7.86965 2.87142 7.80899C2.89654 7.74832 2.93336 7.6932 2.97979 7.64677C3.02621 7.60034 3.08133 7.5635 3.14199 7.53837C3.20265 7.51324 3.26766 7.5003 3.33332 7.5003C3.39898 7.50029 3.464 7.51322 3.52466 7.53834C3.58533 7.56346 3.64045 7.60028 3.68688 7.64671L6.83336 10.7929L13.4798 4.14674C13.5736 4.05308 13.7007 4.00049 13.8333 4.00053C13.9658 4.00058 14.0929 4.05325 14.1867 4.14697C14.2804 4.24069 14.3331 4.36779 14.3331 4.50034C14.3332 4.63289 14.2806 4.76003 14.1869 4.85383L7.18694 11.8536C7.14055 11.9001 7.08543 11.9369 7.02476 11.9621C6.96408 11.9872 6.89904 12.0001 6.83336 12Z" fill="#26E3D2"/>
</svg>
