<svg width="32" height="32" viewBox="0 0 32 32" fill="none" xmlns="http://www.w3.org/2000/svg">
<rect x="0.5" y="0.5" width="31" height="31" rx="15.5" stroke="#707070"/>
<path fill-rule="evenodd" clip-rule="evenodd" d="M11.5285 11.5286C11.7889 11.2683 12.211 11.2683 12.4713 11.5286L15.9999 15.0572L19.5285 11.5286C19.7889 11.2683 20.211 11.2683 20.4713 11.5286C20.7317 11.789 20.7317 12.2111 20.4713 12.4714L16.9427 16L20.4713 19.5286C20.7317 19.789 20.7317 20.2111 20.4713 20.4714C20.211 20.7318 19.7889 20.7318 19.5285 20.4714L15.9999 16.9428L12.4713 20.4714C12.211 20.7318 11.7889 20.7318 11.5285 20.4714C11.2682 20.2111 11.2682 19.789 11.5285 19.5286L15.0571 16L11.5285 12.4714C11.2682 12.2111 11.2682 11.789 11.5285 11.5286Z" fill="#707070"/>
</svg>
