<svg width="12" height="12" viewBox="0 0 12 12" fill="none" xmlns="http://www.w3.org/2000/svg">
<path fill-rule="evenodd" clip-rule="evenodd" d="M6 11C8.76142 11 11 8.76142 11 6C11 3.23858 8.76142 1 6 1C3.23858 1 1 3.23858 1 6C1 8.76142 3.23858 11 6 11ZM6 12C9.31371 12 12 9.31371 12 6C12 2.68629 9.31371 0 6 0C2.68629 0 0 2.68629 0 6C0 9.31371 2.68629 12 6 12Z" fill="url(#paint0_linear_1_18863)"/>
<path d="M7.18411 1.15796L2.60522 7.03201H5.47076L4.7402 10.7106L9.26311 5.0887H6.25729L7.18411 1.15796Z" fill="url(#paint1_linear_1_18863)"/>
<defs>
<linearGradient id="paint0_linear_1_18863" x1="-0.3" y1="4.76471" x2="12.2648" y2="6.58668" gradientUnits="userSpaceOnUse">
<stop stop-color="#00FFEC"/>
<stop offset="0.477083" stop-color="#62E399"/>
<stop offset="1" stop-color="#EDBC22"/>
</linearGradient>
<linearGradient id="paint1_linear_1_18863" x1="2.43878" y1="4.95091" x2="9.48465" y2="5.663" gradientUnits="userSpaceOnUse">
<stop stop-color="#00FFEC"/>
<stop offset="0.477083" stop-color="#62E399"/>
<stop offset="1" stop-color="#EDBC22"/>
</linearGradient>
</defs>
</svg>
