<svg width="16" height="16" viewBox="0 0 16 16" fill="none" xmlns="http://www.w3.org/2000/svg">
<path d="M13.5 4.99976H2.5C2.22386 4.99976 2 5.22361 2 5.49976V7.49976C2 7.7759 2.22386 7.99976 2.5 7.99976H13.5C13.7761 7.99976 14 7.7759 14 7.49976V5.49976C14 5.22361 13.7761 4.99976 13.5 4.99976Z" stroke="#99999A" stroke-width="1.5" stroke-linecap="round" stroke-linejoin="round"/>
<path d="M13 7.99976V12.4998C13 12.6324 12.9473 12.7595 12.8536 12.8533C12.7598 12.9471 12.6326 12.9998 12.5 12.9998H3.5C3.36739 12.9998 3.24021 12.9471 3.14645 12.8533C3.05268 12.7595 3 12.6324 3 12.4998V7.99976" stroke="#99999A" stroke-width="1.5" stroke-linecap="round" stroke-linejoin="round"/>
<path d="M8 4.99976V12.9998" stroke="#99999A" stroke-width="1.5" stroke-linecap="round" stroke-linejoin="round"/>
<path d="M10.8313 4.2935C10.1188 4.99975 8 4.99975 8 4.99975C8 4.99975 8 2.881 8.70625 2.1685C8.98804 1.8867 9.37024 1.72839 9.76875 1.72839C10.1673 1.72839 10.5495 1.8867 10.8313 2.1685C11.113 2.45029 11.2714 2.83248 11.2714 3.231C11.2714 3.62951 11.113 4.0117 10.8313 4.2935V4.2935Z" stroke="#99999A" stroke-width="1.5" stroke-linecap="round" stroke-linejoin="round"/>
<path d="M5.16886 4.2935C5.88136 4.99975 8.00011 4.99975 8.00011 4.99975C8.00011 4.99975 8.00011 2.881 7.29386 2.1685C7.01207 1.8867 6.62988 1.72839 6.23136 1.72839C5.83285 1.72839 5.45065 1.8867 5.16886 2.1685C4.88707 2.45029 4.72876 2.83248 4.72876 3.231C4.72876 3.62951 4.88707 4.0117 5.16886 4.2935V4.2935Z" stroke="#99999A" stroke-width="1.5" stroke-linecap="round" stroke-linejoin="round"/>
</svg>
