<svg width="16" height="16" viewBox="0 0 16 16" fill="none" xmlns="http://www.w3.org/2000/svg">
<path d="M13.5 5H2.5C2.22386 5 2 5.22386 2 5.5V7.5C2 7.77614 2.22386 8 2.5 8H13.5C13.7761 8 14 7.77614 14 7.5V5.5C14 5.22386 13.7761 5 13.5 5Z" stroke="#F04E4C" stroke-width="1.5" stroke-linecap="round" stroke-linejoin="round"/>
<path d="M13 8V12.5C13 12.6326 12.9473 12.7598 12.8536 12.8536C12.7598 12.9473 12.6326 13 12.5 13H3.5C3.36739 13 3.24021 12.9473 3.14645 12.8536C3.05268 12.7598 3 12.6326 3 12.5V8" stroke="#F04E4C" stroke-width="1.5" stroke-linecap="round" stroke-linejoin="round"/>
<path d="M8 5V13" stroke="#F04E4C" stroke-width="1.5" stroke-linecap="round" stroke-linejoin="round"/>
<path d="M10.8313 4.29386C10.1188 5.00011 8 5.00011 8 5.00011C8 5.00011 8 2.88136 8.70625 2.16886C8.98804 1.88707 9.37024 1.72876 9.76875 1.72876C10.1673 1.72876 10.5495 1.88707 10.8313 2.16886C11.113 2.45065 11.2714 2.83285 11.2714 3.23136C11.2714 3.62988 11.113 4.01207 10.8313 4.29386V4.29386Z" stroke="#F04E4C" stroke-width="1.5" stroke-linecap="round" stroke-linejoin="round"/>
<path d="M5.16874 4.29386C5.88124 5.00011 7.99999 5.00011 7.99999 5.00011C7.99999 5.00011 7.99999 2.88136 7.29374 2.16886C7.01195 1.88707 6.62975 1.72876 6.23124 1.72876C5.83272 1.72876 5.45053 1.88707 5.16874 2.16886C4.88695 2.45065 4.72864 2.83285 4.72864 3.23136C4.72864 3.62988 4.88695 4.01207 5.16874 4.29386V4.29386Z" stroke="#F04E4C" stroke-width="1.5" stroke-linecap="round" stroke-linejoin="round"/>
</svg>
