<svg width="20" height="20" viewBox="0 0 20 20" fill="none" xmlns="http://www.w3.org/2000/svg">
<path d="M9.99998 3.86642C11.8778 3.86642 13.1444 4.67753 13.8667 5.35531L16.6889 2.59976C14.9555 0.988645 12.7 -0.000244141 9.99998 -0.000244141C6.08887 -0.000244141 2.71109 2.2442 1.06665 5.51087L4.29998 8.02198C5.11109 5.61087 7.35554 3.86642 9.99998 3.86642Z" fill="#EA4335"/>
<path d="M19.6 10.2217C19.6 9.39947 19.5333 8.79947 19.3889 8.17725H10V11.8884H15.5111C15.4 12.8106 14.8 14.1995 13.4667 15.1328L16.6222 17.5772C18.5111 15.8328 19.6 13.2661 19.6 10.2217Z" fill="#4285F4"/>
<path d="M4.31111 11.9774C4.1 11.3552 3.97778 10.6885 3.97778 9.99963C3.97778 9.31074 4.1 8.64408 4.3 8.02185L1.06667 5.51074C0.388889 6.8663 0 8.38852 0 9.99963C0 11.6107 0.388889 13.133 1.06667 14.4885L4.31111 11.9774Z" fill="#FBBC05"/>
<path d="M9.99998 20.0002C12.7 20.0002 14.9666 19.1114 16.6222 17.578L13.4666 15.1336C12.6222 15.7225 11.4889 16.1336 9.99998 16.1336C7.35554 16.1336 5.11109 14.3891 4.31109 11.978L1.07776 14.4891C2.7222 17.7558 6.08887 20.0002 9.99998 20.0002Z" fill="#34A853"/>
</svg>
