<svg width="16" height="16" viewBox="0 0 16 16" fill="none" xmlns="http://www.w3.org/2000/svg">
<g clip-path="url(#clip0_3002_3614)">
<path d="M6.05992 5.9998C6.21665 5.55424 6.52602 5.17853 6.93322 4.93922C7.34042 4.6999 7.81918 4.61242 8.2847 4.69227C8.75022 4.77212 9.17246 5.01415 9.47664 5.37548C9.78081 5.73682 9.94729 6.19415 9.94659 6.66646C9.94659 7.9998 7.94659 8.66646 7.94659 8.66646M7.99992 11.3331H8.00659M14.6666 7.9998C14.6666 11.6817 11.6818 14.6665 7.99992 14.6665C4.31802 14.6665 1.33325 11.6817 1.33325 7.9998C1.33325 4.3179 4.31802 1.33313 7.99992 1.33313C11.6818 1.33313 14.6666 4.3179 14.6666 7.9998Z" stroke="#99999A" stroke-width="1.5" stroke-linecap="round" stroke-linejoin="round"/>
</g>
<defs>
<clipPath id="clip0_3002_3614">
<rect width="16" height="16" fill="#99999A" transform="translate(0 -0.000244141)"/>
</clipPath>
</defs>
</svg>
