<svg width="16" height="16" viewBox="0 0 16 16" fill="none" xmlns="http://www.w3.org/2000/svg">
<path d="M9.5 12.9999V9.99989C9.5 9.86728 9.44732 9.7401 9.35355 9.64634C9.25979 9.55257 9.13261 9.49989 9 9.49989H7C6.86739 9.49989 6.74021 9.55257 6.64645 9.64634C6.55268 9.7401 6.5 9.86728 6.5 9.99989V12.9999C6.5 13.1325 6.44732 13.2597 6.35355 13.3534C6.25979 13.4472 6.13261 13.4999 6 13.4999H3C2.86739 13.4999 2.74021 13.4472 2.64645 13.3534C2.55268 13.2597 2.5 13.1325 2.5 12.9999V7.21864C2.50112 7.14944 2.51607 7.08117 2.54398 7.01784C2.57189 6.95451 2.61219 6.89741 2.6625 6.84989L7.6625 2.30614C7.75467 2.22181 7.87507 2.17505 8 2.17505C8.12493 2.17505 8.24533 2.22181 8.3375 2.30614L13.3375 6.84989C13.3878 6.89741 13.4281 6.95451 13.456 7.01784C13.4839 7.08117 13.4989 7.14944 13.5 7.21864V12.9999C13.5 13.1325 13.4473 13.2597 13.3536 13.3534C13.2598 13.4472 13.1326 13.4999 13 13.4999H10C9.86739 13.4999 9.74021 13.4472 9.64645 13.3534C9.55268 13.2597 9.5 13.1325 9.5 12.9999Z" stroke="#F04E4C" stroke-width="1.5" stroke-linecap="round" stroke-linejoin="round"/>
</svg>
