<svg width="16" height="16" viewBox="0 0 16 16" fill="none" xmlns="http://www.w3.org/2000/svg">
<path d="M9.5 12.9998V9.99977C9.5 9.86716 9.44732 9.73998 9.35355 9.64621C9.25979 9.55245 9.13261 9.49977 9 9.49977H7C6.86739 9.49977 6.74021 9.55245 6.64645 9.64621C6.55268 9.73998 6.5 9.86716 6.5 9.99977V12.9998C6.5 13.1324 6.44732 13.2596 6.35355 13.3533C6.25979 13.4471 6.13261 13.4998 6 13.4998H3C2.86739 13.4998 2.74021 13.4471 2.64645 13.3533C2.55268 13.2596 2.5 13.1324 2.5 12.9998V7.21852C2.50112 7.14932 2.51607 7.08105 2.54398 7.01772C2.57189 6.95439 2.61219 6.89729 2.6625 6.84977L7.6625 2.30602C7.75467 2.22169 7.87507 2.17493 8 2.17493C8.12493 2.17493 8.24533 2.22169 8.3375 2.30602L13.3375 6.84977C13.3878 6.89729 13.4281 6.95439 13.456 7.01772C13.4839 7.08105 13.4989 7.14932 13.5 7.21852V12.9998C13.5 13.1324 13.4473 13.2596 13.3536 13.3533C13.2598 13.4471 13.1326 13.4998 13 13.4998H10C9.86739 13.4998 9.74021 13.4471 9.64645 13.3533C9.55268 13.2596 9.5 13.1324 9.5 12.9998Z" stroke="#99999A" stroke-width="1.5" stroke-linecap="round" stroke-linejoin="round"/>
</svg>
