<svg width="16" height="16" viewBox="0 0 16 16" fill="none" xmlns="http://www.w3.org/2000/svg">
<path d="M8 11C9.65685 11 11 9.65685 11 8C11 6.34315 9.65685 5 8 5C6.34315 5 5 6.34315 5 8C5 9.65685 6.34315 11 8 11Z" stroke="#F04E4C" stroke-width="1.5" stroke-linecap="round" stroke-linejoin="round"/>
<path d="M12.3375 5.04365C12.488 5.25907 12.6197 5.48699 12.7313 5.7249L14.35 6.6249C14.5521 7.5302 14.5543 8.4687 14.3563 9.3749L12.7313 10.2749C12.6197 10.5128 12.488 10.7407 12.3375 10.9562L12.3688 12.8124C11.6827 13.4375 10.8708 13.9085 9.98752 14.1937L8.39377 13.2374C8.1316 13.2562 7.86843 13.2562 7.60627 13.2374L6.01877 14.1874C5.13271 13.9075 4.31808 13.4383 3.63127 12.8124L3.66252 10.9624C3.51331 10.744 3.38165 10.5141 3.26877 10.2749L1.65002 9.3749C1.44789 8.46961 1.44576 7.53111 1.64377 6.6249L3.26877 5.7249C3.38032 5.48699 3.51205 5.25907 3.66252 5.04365L3.63127 3.1874C4.3173 2.56226 5.12926 2.09128 6.01252 1.80615L7.60627 2.7624C7.86843 2.74365 8.1316 2.74365 8.39377 2.7624L9.98127 1.8124C10.8673 2.09234 11.682 2.5615 12.3688 3.1874L12.3375 5.04365Z" stroke="#F04E4C" stroke-width="1.5" stroke-linecap="round" stroke-linejoin="round"/>
</svg>
