<svg width="16" height="16" viewBox="0 0 16 16" fill="none" xmlns="http://www.w3.org/2000/svg">
<path d="M11 9.99976C10.6664 9.99964 10.3363 10.0665 10.029 10.1963C9.72181 10.3261 9.44376 10.5163 9.21137 10.7556L6.33027 8.90341C6.55655 8.32222 6.55655 7.67729 6.33027 7.0961L9.21137 5.24396C9.64387 5.68638 10.2252 5.95247 10.8427 5.99065C11.4603 6.02883 12.07 5.83638 12.5537 5.4506C13.0374 5.06482 13.3606 4.5132 13.4608 3.90266C13.5609 3.29211 13.4308 2.66613 13.0956 2.14606C12.7605 1.62599 12.2442 1.24887 11.6468 1.08781C11.0495 0.926738 10.4136 0.993195 9.86241 1.27429C9.31125 1.55539 8.88409 2.03111 8.66372 2.60924C8.44336 3.18736 8.44548 3.82672 8.66968 4.40337L5.78855 6.25552C5.44161 5.89928 4.99631 5.6546 4.50958 5.55275C4.02285 5.45091 3.51681 5.49653 3.05615 5.68378C2.59548 5.87104 2.20112 6.19142 1.92349 6.60396C1.64585 7.01651 1.49756 7.50249 1.49756 7.99976C1.49756 8.49703 1.64585 8.983 1.92349 9.39555C2.20112 9.8081 2.59548 10.1285 3.05615 10.3157C3.51681 10.503 4.02285 10.5486 4.50958 10.4468C4.99631 10.3449 5.44161 10.1002 5.78855 9.74399L8.66969 11.5961C8.4768 12.0939 8.44833 12.6403 8.58843 13.1554C8.72854 13.6705 9.02987 14.1272 9.44831 14.4587C9.86674 14.7901 10.3803 14.9789 10.9138 14.9974C11.4473 15.0159 11.9727 14.8631 12.4131 14.5615C12.8534 14.2598 13.1857 13.825 13.3611 13.3209C13.5366 12.8167 13.546 12.2696 13.388 11.7597C13.2301 11.2498 12.913 10.8039 12.4833 10.4872C12.0536 10.1705 11.5338 9.99967 11 9.99976Z" fill="#99999A"/>
</svg>
