<svg width="16" height="16" viewBox="0 0 16 16" fill="none" xmlns="http://www.w3.org/2000/svg">
<path d="M9.36901 11.8674L9.49632 11.5389L9.74937 11.2783C9.91182 11.1111 10.1062 10.9782 10.321 10.8874C10.5357 10.7966 10.7666 10.7499 10.9997 10.75L11 10L11.0001 10.75C11.3737 10.7499 11.7376 10.8695 12.0384 11.0912C12.3392 11.3128 12.5611 11.625 12.6716 11.9819C12.7822 12.3388 12.7756 12.7217 12.6528 13.0746C12.53 13.4275 12.2974 13.7318 11.9892 13.943C11.6809 14.1541 11.3132 14.2611 10.9398 14.2481C10.5664 14.2352 10.2069 14.103 9.91401 13.871C9.62112 13.639 9.41021 13.3193 9.31214 12.9588C9.21407 12.5983 9.234 12.2158 9.36901 11.8674ZM5.63137 8.63155L5.50222 8.96326L5.25125 9.22096C5.00839 9.47033 4.69669 9.64161 4.35598 9.7129C4.01527 9.78419 3.66104 9.75226 3.33857 9.62118C3.0161 9.4901 2.74005 9.26584 2.54571 8.97705C2.35137 8.68827 2.24756 8.34809 2.24756 8C2.24756 7.65191 2.35137 7.31173 2.54571 7.02295C2.74005 6.73416 3.0161 6.5099 3.33857 6.37882C3.66104 6.24774 4.01527 6.21581 4.35598 6.2871C4.69669 6.35839 5.00839 6.52967 5.25125 6.77904L5.50222 7.03674L5.63137 7.36845C5.78951 7.77463 5.78951 8.22537 5.63137 8.63155ZM9.74768 4.71992L9.49809 4.4646L9.36871 4.13183C9.21185 3.72839 9.21036 3.28109 9.36454 2.87662C9.51871 2.47215 9.81756 2.13932 10.2032 1.94266C10.5888 1.746 11.0337 1.6995 11.4516 1.81219C11.8695 1.92488 12.2307 2.18872 12.4652 2.55257C12.6997 2.91642 12.7907 3.35437 12.7206 3.78152C12.6506 4.20867 12.4244 4.5946 12.086 4.86449C11.7476 5.13439 11.3211 5.26903 10.889 5.24232C10.457 5.21561 10.0503 5.02945 9.74768 4.71992Z" fill="#99999A" stroke="#F04E4C" stroke-width="1.5"/>
</svg>
