<svg width="20" height="20" viewBox="0 0 20 20" fill="none" xmlns="http://www.w3.org/2000/svg">
<path d="M18.3976 7.39176C18.382 6.57455 18.2838 5.7616 17.8938 5.02903C17.0385 3.42092 15.7187 2.62078 13.9756 2.54823C12.0003 2.46573 10.0243 2.51622 8.04829 2.50556C7.22078 2.50058 6.39394 2.50911 5.56846 2.59446C3.40488 2.81779 1.77627 4.5781 1.63812 6.8626C1.52165 8.77654 1.56499 10.6926 1.60223 12.6073C1.61781 13.4152 1.71261 14.2189 2.09522 14.9458C2.94305 16.5568 4.25338 17.3697 5.99847 17.4501C7.32371 17.5113 8.64894 17.4871 10.0961 17.4999C11.4599 17.4714 12.947 17.5546 14.43 17.4039C16.5841 17.1862 18.2215 15.4252 18.361 13.1635C18.4789 11.2403 18.4348 9.31566 18.3976 7.39176ZM12.5908 15.012C12.5908 15.1542 12.5915 15.2958 12.5854 15.4373C12.5678 15.8619 12.3369 16.1201 11.9312 16.1187C9.91527 16.1108 7.89795 16.1798 5.882 16.0689C4.68407 16.0034 3.8139 15.3975 3.23897 14.305C2.99993 13.8512 2.93695 13.347 2.9146 12.8441C2.83199 10.948 2.83808 9.05179 2.91054 7.15563C2.96065 5.84197 3.52406 4.85904 4.63802 4.24524C5.23191 3.91807 5.89215 3.90029 6.53818 3.89176C8.29343 3.869 10.0493 3.87469 11.8046 3.8754C12.3788 3.87611 12.5867 4.09517 12.5881 4.69404C12.5915 6.46715 12.5894 8.23956 12.5894 10.0127H12.5908V15.012Z" fill="#707070"/>
</svg>
