<svg width="16" height="16" viewBox="0 0 16 16" fill="none" xmlns="http://www.w3.org/2000/svg">
<path d="M7.66869 1.61869L2.62494 2.62494L1.61869 7.66869C1.60292 7.74922 1.60722 7.8324 1.6312 7.91088C1.65518 7.98936 1.69811 8.06073 1.75619 8.11869L8.28119 14.6437C8.32718 14.6907 8.38211 14.7281 8.44275 14.7537C8.50339 14.7792 8.56852 14.7923 8.63432 14.7923C8.70011 14.7923 8.76524 14.7792 8.82589 14.7537C8.88653 14.7281 8.94146 14.6907 8.98744 14.6437L14.6437 8.98744C14.6907 8.94146 14.7281 8.88653 14.7537 8.82589C14.7792 8.76524 14.7923 8.70011 14.7923 8.63432C14.7923 8.56852 14.7792 8.50339 14.7537 8.44275C14.7281 8.38211 14.6907 8.32718 14.6437 8.28119L8.11869 1.75619C8.06073 1.69811 7.98936 1.65518 7.91088 1.6312C7.8324 1.60722 7.74922 1.60292 7.66869 1.61869V1.61869Z" stroke="#F04E4C" stroke-width="1.5" stroke-linecap="round" stroke-linejoin="round"/>
<path d="M5.25 6C5.66421 6 6 5.66421 6 5.25C6 4.83579 5.66421 4.5 5.25 4.5C4.83579 4.5 4.5 4.83579 4.5 5.25C4.5 5.66421 4.83579 6 5.25 6Z" fill="#F04E4C"/>
</svg>
