<svg width="16" height="16" viewBox="0 0 16 16" fill="none" xmlns="http://www.w3.org/2000/svg">
<path d="M7.66869 1.61845L2.62494 2.6247L1.61869 7.66845C1.60292 7.74898 1.60722 7.83215 1.6312 7.91063C1.65518 7.98911 1.69811 8.06048 1.75619 8.11845L8.28119 14.6434C8.32718 14.6905 8.38211 14.7279 8.44275 14.7534C8.50339 14.779 8.56852 14.7921 8.63432 14.7921C8.70011 14.7921 8.76524 14.779 8.82589 14.7534C8.88653 14.7279 8.94146 14.6905 8.98744 14.6434L14.6437 8.9872C14.6907 8.94121 14.7281 8.88628 14.7537 8.82564C14.7792 8.765 14.7923 8.69987 14.7923 8.63407C14.7923 8.56828 14.7792 8.50315 14.7537 8.4425C14.7281 8.38186 14.6907 8.32693 14.6437 8.28095L8.11869 1.75595C8.06073 1.69786 7.98936 1.65493 7.91088 1.63096C7.8324 1.60698 7.74922 1.60268 7.66869 1.61845V1.61845Z" stroke="#99999A" stroke-width="1.5" stroke-linecap="round" stroke-linejoin="round"/>
<path d="M5.25 5.99976C5.66421 5.99976 6 5.66397 6 5.24976C6 4.83554 5.66421 4.49976 5.25 4.49976C4.83579 4.49976 4.5 4.83554 4.5 5.24976C4.5 5.66397 4.83579 5.99976 5.25 5.99976Z" fill="#99999A"/>
</svg>
