<svg width="16" height="17" viewBox="0 0 16 17" fill="none" xmlns="http://www.w3.org/2000/svg">
<path d="M5.80624 10.8812C6.39628 10.3151 7.18231 9.99902 7.99999 9.99902C8.81767 9.99902 9.6037 10.3151 10.1937 10.8812" stroke="#707070" stroke-width="1.5" stroke-linecap="round" stroke-linejoin="round"/>
<path d="M3.6875 8.75624C4.84088 7.63082 6.38852 7.00085 8 7.00085C9.61148 7.00085 11.1591 7.63082 12.3125 8.75624" stroke="#707070" stroke-width="1.5" stroke-linecap="round" stroke-linejoin="round"/>
<path d="M1.56876 6.63746C3.28304 4.9481 5.5932 4.0011 8.00001 4.0011C10.4068 4.0011 12.717 4.9481 14.4313 6.63746" stroke="#707070" stroke-width="1.5" stroke-linecap="round" stroke-linejoin="round"/>
<path d="M8 13.75C8.41421 13.75 8.75 13.4142 8.75 13C8.75 12.5858 8.41421 12.25 8 12.25C7.58579 12.25 7.25 12.5858 7.25 13C7.25 13.4142 7.58579 13.75 8 13.75Z" fill="#707070"/>
</svg>
